<?xml version="1.0" encoding="UTF-8" standalone="no"?>
<svg
   viewBox="0 0 959.729 935.734"
   version="1.1"
   id="svg1"
   sodipodi:docname="adobe-illustrator.svg"
   width="959.729"
   height="935.73401"
   inkscape:version="1.3 (0e150ed6c4, 2023-07-21)"
   xmlns:inkscape="http://www.inkscape.org/namespaces/inkscape"
   xmlns:sodipodi="http://sodipodi.sourceforge.net/DTD/sodipodi-0.dtd"
   xmlns="http://www.w3.org/2000/svg"
   xmlns:svg="http://www.w3.org/2000/svg">
  <defs
     id="defs1" />
  <sodipodi:namedview
     id="namedview1"
     pagecolor="#ffffff"
     bordercolor="#000000"
     borderopacity="0.25"
     inkscape:showpageshadow="2"
     inkscape:pageopacity="0.0"
     inkscape:pagecheckerboard="0"
     inkscape:deskcolor="#d1d1d1"
     inkscape:zoom="0.66045425"
     inkscape:cx="479.97268"
     inkscape:cy="544.32233"
     inkscape:window-width="1920"
     inkscape:window-height="991"
     inkscape:window-x="-9"
     inkscape:window-y="-9"
     inkscape:window-maximized="1"
     inkscape:current-layer="svg1" />
  <path
     d="m 715.436,293.915 c -8.56,8.694 -20.46,14.08 -33.616,14.08 -0.99,0 -1.973,-0.03 -2.948,-0.09 l 0.134,0.006 c -0.317,0.007 -0.69,0.01 -1.066,0.01 -13.442,0 -25.636,-5.34 -34.575,-14.018 l 0.013,0.012 c -8.448,-9.208 -13.625,-21.535 -13.625,-35.07 0,-0.605 0.01,-1.208 0.03,-1.807 v 0.088 c -0.02,-0.5 -0.03,-1.09 -0.03,-1.68 0,-13.305 5.51,-25.323 14.372,-33.897 l 0.013,-0.01 c 9.202,-8.67 21.636,-13.998 35.314,-13.998 h 0.375 -0.02 c 0.746,-0.04 1.618,-0.064 2.495,-0.064 13.24,0 25.227,5.374 33.895,14.06 8.198,8.946 13.22,20.917 13.22,34.06 0,0.538 -0.008,1.074 -0.025,1.608 l 0.002,-0.078 c 0.02,0.54 0.03,1.172 0.03,1.807 0,13.57 -5.327,25.898 -14.006,35.003 l 0.02,-0.02 z m 8.358,361.096 c 0,4.4 -1.56,6.4 -5.158,6.4 h -78.417 c -0.133,0.01 -0.288,0.018 -0.444,0.018 -3.1,0 -5.612,-2.513 -5.612,-5.613 0,-0.285 0.02,-0.564 0.062,-0.837 l -0.004,0.03 v -307.91 c 0,-4 1.64,-5.6 5.24,-5.6 h 79.176 c 3.6,0 5.158,2 5.158,5.6 z m -135.962,6 h -83.615 c -0.166,0.016 -0.36,0.026 -0.554,0.026 -2.758,0 -5.082,-1.853 -5.795,-4.382 l -0.01,-0.042 -32.79,-95.172 H 316.31 l -30.39,93.973 c -0.674,3.257 -3.518,5.67 -6.926,5.67 -0.236,0 -0.47,-0.012 -0.702,-0.034 l 0.03,0.002 h -75.18 c -4.398,0 -5.597,-2.44 -4.398,-7.197 L 327.507,283.122 c 1.2,-4 2.4,-8.397 4,-13.196 1.525,-7.75 2.398,-16.663 2.398,-25.778 v -0.228 0.012 c -0.02,-0.15 -0.03,-0.326 -0.03,-0.504 0,-1.93 1.38,-3.538 3.206,-3.89 l 0.025,-0.005 h 103.57 c 3.2,0 4.8,1.2 5.2,3.2 L 591.83,654.617 c 1.2,4.356 0,6.396 -4,6.396 z M 789.774,10e-4 H 169.81 C 76.027,10e-4 0,76.027 0,169.811 v 0.15 -0.008 595.971 c 0,93.783 76.027,169.81 169.81,169.81 h 620.109 c 93.783,0 169.81,-76.027 169.81,-169.81 v -0.15 0.007 -595.828 -0.143 C 959.729,76.027 883.702,0 789.919,0 h -0.15 0.007 z m -368.693,417.08 c -4,-12.396 -7.597,-24.392 -11.597,-36.79 -4,-12.398 -7.597,-23.992 -10.797,-35.59 -3.2,-11.196 -5.998,-21.593 -8.797,-31.19 h -0.8 c -4.313,20.86 -9.005,38.16 -14.59,55.054 l 0.994,-3.47 c -6,19.194 -11.997,39.188 -18.395,59.183 -5.6,20.395 -11.597,39.19 -17.595,55.985 h 101.568 c -2.4,-8.438 -5.598,-18.394 -9.197,-28.83 -3.594,-10.757 -7.194,-22.354 -10.793,-34.35 z"
     id="path1" />
</svg>
