<?xml version="1.0" encoding="UTF-8" standalone="no"?>
<svg
   viewBox="0 0 959.729 935.734"
   version="1.1"
   id="svg1"
   sodipodi:docname="adobe-indesign.svg"
   inkscape:export-filename="..\..\..\Portfolio\media\adobe-indesign.svg"
   inkscape:export-xdpi="96"
   inkscape:export-ydpi="96"
   width="959.729"
   height="935.73401"
   inkscape:version="1.3 (0e150ed6c4, 2023-07-21)"
   xmlns:inkscape="http://www.inkscape.org/namespaces/inkscape"
   xmlns:sodipodi="http://sodipodi.sourceforge.net/DTD/sodipodi-0.dtd"
   xmlns="http://www.w3.org/2000/svg"
   xmlns:svg="http://www.w3.org/2000/svg">
  <defs
     id="defs1" />
  <sodipodi:namedview
     id="namedview1"
     pagecolor="#ffffff"
     bordercolor="#000000"
     borderopacity="0.25"
     inkscape:showpageshadow="2"
     inkscape:pageopacity="0.0"
     inkscape:pagecheckerboard="0"
     inkscape:deskcolor="#d1d1d1"
     inkscape:zoom="0.66045425"
     inkscape:cx="479.97268"
     inkscape:cy="544.32233"
     inkscape:window-width="1920"
     inkscape:window-height="991"
     inkscape:window-x="-9"
     inkscape:window-y="-9"
     inkscape:window-maximized="1"
     inkscape:current-layer="svg1" />
  <path
     d="m 594.232,409.083 c -0.33,-0.004 -0.718,-0.006 -1.107,-0.006 -16.066,0 -31.235,3.845 -44.636,10.663 l 0.56,-0.26 c -13.882,7.016 -25.323,17.05 -33.795,29.294 l -0.196,0.298 c -8.342,13.267 -13.29,29.4 -13.29,46.687 0,1.44 0.033,2.875 0.1,4.3 l -0.007,-0.202 c -0.022,0.825 -0.034,1.796 -0.034,2.77 0,13.79 2.505,26.996 7.086,39.186 l -0.254,-0.768 c 4.09,11.088 10.218,20.56 17.993,28.394 l -0.006,-0.005 c 7.472,7.14 16.58,12.636 26.703,15.86 l 0.49,0.136 c 9.728,3.297 20.933,5.2 32.583,5.2 0.213,0 0.426,0 0.64,-0.002 h -0.034 c 5.998,0 11.596,-0.4 16.795,-0.8 0.786,0.065 1.7,0.102 2.623,0.102 4.227,0 8.274,-0.77 12.01,-2.178 l -0.236,0.078 V 411.881 c -2.884,-0.742 -6.545,-1.443 -10.27,-1.942 l -0.525,-0.058 c -4.4,-0.4 -8.797,-0.8 -13.195,-0.8 z M 265.124,239.531 h 77.98 c 0.21,-0.035 0.454,-0.055 0.703,-0.055 2.332,0 4.252,1.767 4.493,4.035 l 0.002,0.02 c 0.254,0.264 0.41,0.623 0.41,1.02 0,0.063 -0.003,0.125 -0.01,0.187 v -0.007 410.282 c 0,4.4 -2,6.4 -5.6,6.4 h -78.377 c -3.598,0 -5.197,-2 -5.197,-6.4 V 244.731 c 0,-3.6 2,-5.2 5.598,-5.2 z m 357.1,-34.39 h 81.175 c 0.148,-0.02 0.32,-0.033 0.494,-0.033 1.713,0 3.145,1.203 3.5,2.81 l 0.003,0.024 v 381.49 c 0,7.198 0.4,15.196 0.8,23.993 0.8,8.397 1.2,16.395 1.6,23.193 0.008,0.12 0.012,0.26 0.012,0.4 0,2.69 -1.637,5 -3.97,5.984 l -0.042,0.016 c -18.702,8.118 -40.57,14.775 -63.315,18.913 l -1.866,0.282 c -18.493,3.518 -39.785,5.554 -61.545,5.6 h -0.038 c -0.972,0.016 -2.118,0.026 -3.266,0.026 -29.992,0 -58.433,-6.64 -83.933,-18.534 l 1.224,0.512 c -25.38,-12.055 -45.963,-30.71 -60.035,-53.77 l -0.35,-0.614 c -13.912,-24.366 -22.116,-53.547 -22.116,-84.644 0,-2.296 0.045,-4.582 0.133,-6.857 l -0.01,0.327 c -0.01,-0.668 -0.015,-1.457 -0.015,-2.248 0,-30.24 8.172,-58.57 22.43,-82.903 l -0.42,0.775 c 15.414,-26.143 36.963,-47.18 62.736,-61.55 l 0.844,-0.432 c 27.5,-14.675 60.143,-23.294 94.8,-23.294 2.24,0 4.474,0.036 6.697,0.108 l -0.326,-0.008 c 0.24,-0.003 0.524,-0.005 0.808,-0.005 2.673,0 5.312,0.147 7.91,0.433 l -0.32,-0.03 c 3.6,0.4 7.598,0.4 12.397,0.8 V 209.542 c -0.003,-2.8 1.196,-4.4 3.996,-4.4 z M 169.954,0.002 H 169.81 C 76.027,0.002 0,76.027 0,169.81 v 0.15 -0.007 595.971 c 0,93.783 76.027,169.81 169.81,169.81 h 620.109 c 93.783,0 169.81,-76.027 169.81,-169.81 v -0.15 0.007 -595.828 -0.143 C 959.729,76.027 883.702,0 789.919,0 h -0.15 0.007 z"
     id="path1" />
</svg>
