<?xml version="1.0" encoding="UTF-8" standalone="no"?>
<!-- Generator: Adobe Illustrator 24.0.0, SVG Export Plug-In . SVG Version: 6.00 Build 0)  -->

<svg
   version="1.1"
   id="Layer_1"
   x="0px"
   y="0px"
   viewBox="0 0 64 64"
   width="64"
   height="64"
   style="enable-background:new 0 0 64 64;"
   xml:space="preserve"
   sodipodi:docname="canva-icon.svg"
   inkscape:version="1.3 (0e150ed6c4, 2023-07-21)"
   xmlns:inkscape="http://www.inkscape.org/namespaces/inkscape"
   xmlns:sodipodi="http://sodipodi.sourceforge.net/DTD/sodipodi-0.dtd"
   xmlns="http://www.w3.org/2000/svg"
   xmlns:svg="http://www.w3.org/2000/svg"><defs
   id="defs1" /><sodipodi:namedview
   id="namedview1"
   pagecolor="#ffffff"
   bordercolor="#000000"
   borderopacity="0.25"
   inkscape:showpageshadow="2"
   inkscape:pageopacity="0.0"
   inkscape:pagecheckerboard="0"
   inkscape:deskcolor="#d1d1d1"
   inkscape:zoom="12.140625"
   inkscape:cx="31.958816"
   inkscape:cy="31.917632"
   inkscape:window-width="1920"
   inkscape:window-height="991"
   inkscape:window-x="-9"
   inkscape:window-y="-9"
   inkscape:window-maximized="1"
   inkscape:current-layer="Layer_1" />&#10;<style
   type="text/css"
   id="style1">&#10;	.st0{fill:#24BECA;}&#10;	.st1{fill:#FFFFFF;}&#10;</style>&#10;<path
   id="circle1"
   style="fill:#000000"
   class="st0"
   d="M 32 0 A 32 32 0 0 0 0 32 A 32 32 0 0 0 32 64 A 32 32 0 0 0 64 32 A 32 32 0 0 0 32 0 z M 37.300781 11.099609 C 41.700777 11.099609 45.000391 14.200004 45.400391 18 C 45.80039 21.399997 44.499215 24.299221 40.699219 26.199219 C 38.799221 27.199218 37.8 27.099218 37.5 26.699219 C 37.3 26.399219 37.400782 25.899609 37.800781 25.599609 C 41.300778 22.699612 41.4 20.300387 41 16.900391 C 40.7 14.700393 39.299217 13.300781 37.699219 13.300781 C 30.799226 13.300781 20.79922 28.800011 22.199219 40 C 22.699218 44.399996 25.400006 49.5 31 49.5 C 32.799998 49.5 34.800002 48.999608 36.5 48.099609 C 40.399996 46.099611 42.100393 44.699997 44.400391 41.5 C 44.70039 41.1 45.000782 40.599218 45.300781 40.199219 C 45.500781 39.799219 45.899219 39.699219 46.199219 39.699219 C 46.499218 39.699219 46.900391 40 46.900391 40.5 C 46.900391 40.8 46.80039 41.400391 46.400391 41.900391 C 46.300391 42.10039 45.999609 42.69961 45.599609 43.099609 C 43.899611 45.399607 41.700778 47.799611 38.800781 49.599609 C 36.000784 51.399608 32.799996 52.800781 29 52.800781 C 25.500003 52.800781 22.599998 50.999998 21 49.5 C 18.600002 47.200002 17.30039 43.900778 16.900391 40.800781 C 15.700392 31.200791 21.599228 18.499995 30.699219 13 C 32.799217 11.700001 35.100783 11.099609 37.300781 11.099609 z " />&#10;&#10;</svg>
