<?xml version="1.0" encoding="UTF-8" standalone="no"?>
<!-- Created with Inkscape (http://www.inkscape.org/) -->

<svg
   width="210mm"
   height="297mm"
   viewBox="0 0 210 297"
   version="1.1"
   id="svg5"
   xml:space="preserve"
   inkscape:version="1.2.1 (9c6d41e410, 2022-07-14)"
   sodipodi:docname="logo.svg"
   xmlns:inkscape="http://www.inkscape.org/namespaces/inkscape"
   xmlns:sodipodi="http://sodipodi.sourceforge.net/DTD/sodipodi-0.dtd"
   xmlns="http://www.w3.org/2000/svg"
   xmlns:svg="http://www.w3.org/2000/svg"><sodipodi:namedview
     id="namedview7"
     pagecolor="#ffffff"
     bordercolor="#666666"
     borderopacity="1.0"
     inkscape:showpageshadow="2"
     inkscape:pageopacity="0.0"
     inkscape:pagecheckerboard="false"
     inkscape:deskcolor="#ffffff"
     inkscape:document-units="px"
     showgrid="false"
     showborder="false"
     inkscape:zoom="0.1767767"
     inkscape:cx="-517.60216"
     inkscape:cy="1535.8359"
     inkscape:window-width="1920"
     inkscape:window-height="1001"
     inkscape:window-x="-9"
     inkscape:window-y="-9"
     inkscape:window-maximized="1"
     inkscape:current-layer="layer1" /><defs
     id="defs2"><rect
       x="599.62655"
       y="859.84185"
       width="605.28341"
       height="466.69048"
       id="rect440" /><rect
       x="724.07735"
       y="-362.03867"
       width="675.99409"
       height="418.60721"
       id="rect434" /><rect
       x="-107.48023"
       y="-229.1026"
       width="308.29856"
       height="356.38182"
       id="rect246" /><rect
       x="-579.82756"
       y="-65.053824"
       width="466.69048"
       height="551.54329"
       id="rect862" /><rect
       x="-107.48023"
       y="-229.1026"
       width="308.29856"
       height="356.38182"
       id="rect304" /><rect
       x="-107.48023"
       y="-229.1026"
       width="308.29856"
       height="356.38182"
       id="rect418" /><rect
       x="-107.48023"
       y="-229.1026"
       width="308.29856"
       height="356.38182"
       id="rect424" /><rect
       x="-107.48023"
       y="-229.1026"
       width="308.29856"
       height="356.38182"
       id="rect430" /></defs><g
     inkscape:label="Layer 1"
     inkscape:groupmode="layer"
     id="layer1"><path
       style="fill:#e57ba3;fill-opacity:1;stroke-width:0.407297"
       d="m -937.16509,237.33013 c -34.15562,-22.87231 -56.13683,-45.17213 -61.9136,-62.811 -2.15671,-6.58518 -1.63951,-17.53063 1.22338,-25.8923 2.04601,-5.97585 4.36045,-9.73723 8.62143,-14.01142 6.48467,-6.5048 14.05554,-9.58285 23.57022,-9.58285 13.64611,0 26.91471,7.59233 34.56081,19.77581 1.18191,1.88328 2.24057,3.42415 2.35257,3.42415 0.11201,0 1.17067,-1.54087 2.35258,-3.42415 10.20066,-16.25398 30.3009,-23.85003 46.78777,-17.6815 8.67273,3.24488 15.75259,10.49294 19.39722,19.85804 2.18287,5.60902 2.88105,9.7182 2.9136,17.14815 0.0261,5.96085 -0.0785,7.06564 -0.92582,9.77513 -4.80457,15.36392 -21.67006,34.02868 -49.15198,54.39569 -5.40464,4.00541 -20.84837,14.4375 -21.37337,14.4375 -0.18376,0 -3.97042,-2.43507 -8.41481,-5.41125 z"
       id="path532" /><path
       style="fill:#e57ba3;fill-opacity:1;stroke-width:0.407297"
       d="m -1049.6137,344.2605 c -14.7354,-9.86757 2.0401,35.07234 -12.1983,35.07234 -10.7447,0 3.9335,-42.49194 -6.7797,-48.67722 -2.3928,-1.38143 -4.4767,-3.17454 -6.3407,-5.03857 -9.4437,-9.44366 1.9611,29.69034 -6.4629,29.69034 -10.2301,0 5.203,-29.46422 -5.9043,-40.57154 -2.8229,-2.82291 -5.5548,-5.4677 -7.9832,-8.13512 -2.4283,-2.66741 -4.6212,-5.28771 -6.5702,-7.85239 -4.6521,-6.12165 -7.9148,-11.92644 -9.6743,-17.29884 -2.1567,-6.58518 -1.6395,-17.53063 1.2234,-25.8923 2.046,-5.97584 4.3604,-9.73722 8.6214,-14.01142 6.4847,-6.50479 14.0556,-9.58285 23.5702,-9.58285 13.6461,0 26.9147,7.59234 34.5608,19.77582 1.1819,1.88327 2.2406,3.42414 2.3526,3.42414 0.112,0 1.1707,-1.54087 2.3526,-3.42414 10.2006,-16.25398 30.3009,-23.85003 46.78775,-17.6815 8.67273,3.24488 15.75259,10.49294 19.39722,19.85803 2.18287,5.60902 2.88105,9.7182 2.9136,17.14815 0.0261,5.96086 -0.0785,7.06564 -0.92582,9.77513 -4.1583,13.29728 -17.35106,29.06713 -38.64175,46.27314 -1.6545,1.33706 -3.3579,2.6828 -5.1097,4.03672 -1.7519,1.35392 -3.5522,2.71602 -5.4005,4.08583 -15.5656,11.53575 -0.7663,39.97027 -9.8316,39.97027 -8.669,0 5.5238,-37.58256 -6.2037,-28.79901 -1.7496,1.31042 -3.5107,2.53913 -5.3381,3.26624 -0.1838,0 -3.9704,-2.43507 -8.4148,-5.41125 z"
       id="path800"
       sodipodi:nodetypes="sssssssssssssssssscssscscs" /><path
       style="fill:#000000;stroke-width:0.407297"
       id="path528"
       d="" /><text
       xml:space="preserve"
       transform="matrix(0.26458333,0,0,0.26458333,-179.68212,-96.308334)"
       id="text244"
       style="font-style:normal;font-variant:normal;font-weight:normal;font-stretch:normal;font-size:192px;line-height:0;font-family:Ashington;-inkscape-font-specification:Ashington;letter-spacing:20px;word-spacing:0px;white-space:pre;shape-inside:url(#rect246);display:inline"><tspan
         x="-107.48047"
         y="-197.73573"
         id="tspan545">RB</tspan></text><g
       id="g779"
       transform="translate(-179.00767,-30.837919)"><path
         d="m -0.10519302,-73.28242 c 0.6096,-0.1016 2.38760002,-0.3556 4.36880002,-1.0668 4.2164,-1.4732 6.5532,-4.9784 6.5532,-9.398 0,-4.5212 -2.1336,-7.5184 -6.1976,-8.9408 -2.032,-0.7112 -4.72440002,-1.016 -7.9756,-1.016 h -16.6624 v 0.7112 c 0,0 3.1496,0.1524 3.1496,4.826 v 12.2936 h 9.2964 v -16.3068 c 5.2324,-2.0828 8.9916,2.5908 8.9916,8.7884 0,4.572 -1.87960002,7.9248 -5.6388,8.6868 -0.8128,0.1524 -1.9304,0.254 -3.3528,0.254 h -9.2964 c -3.81,0 -11.8872,0.1016 -11.8872,6.096 0,6.0452 8.3312,5.4864 9.4996,3.4544 -2.0828,-0.3048 -3.0988,-2.0828 -3.0988,-3.9624 0,-2.286 1.7272,-3.6576 5.4864,-3.81 v 9.0424 c 0,4.6736 -3.1496,4.826 -3.1496,4.826 v 0.6604 h 15.9004 v -0.508 c 0,0 -3.4544,-0.6096 -3.4544,-4.826 v -9.1948 c 0,0 1.6764,0.1016 3.3528,-0.0508 2.9972,1.5748 4.01319998,5.0292 5.02919998,7.62 2.38760002,5.9944 6.95960002,16.2052 15.39240002,16.2052 8.4328,0 13.71441,-10.779654 13.71441,-10.779654 -17.5768,5.588 -17.27041,-11.470746 -30.02121002,-13.604346 z"
         id="path654"
         style="font-size:192px;line-height:0;font-family:Rockabye;-inkscape-font-specification:Rockabye;letter-spacing:20px;word-spacing:0px;white-space:pre;stroke-width:0.264583"
         sodipodi:nodetypes="ccsssccscccscssscscsccccscccscc" /><path
         d="m 35.427157,-58.14402 c 8.5852,0 14.2748,-2.9464 13.9192,-11.43 -0.2032,-5.588 -3.7592,-9.7028 -8.382,-10.3124 3.9624,0 6.7564,-2.9972 6.604,-7.0104 -0.254,-5.588 -4.7752,-6.7056 -9.398,-6.7056 -6.1468,0 -12.7,-0.1016 -18.8468,-0.1016 v 0.7112 c 0,0 3.6576,-0.3048 3.6576,3.7592 v 26.7208 c 0,3.6068 -3.6576,3.7592 -3.6576,3.7592 v 0.6096 z m -3.1496,-33.9344 c 0.4064,-0.1524 1.27,-0.254 1.7272,-0.254 2.7432,0 4.5212,3.048 4.5212,6.1468 0,4.4196 -2.0828,6.0452 -6.2484,6.0452 z m 0,13.5128 h 2.0828 c 3.81,0 5.4356,4.2672 5.4356,9.5504 0,4.6736 -0.6096,8.5852 -4.0132,8.5852 -2.7432,0 -3.5052,-2.4892 -3.5052,-5.4356 z"
         id="path656"
         style="font-size:192px;line-height:0;font-family:Rockabye;-inkscape-font-specification:Rockabye;letter-spacing:20px;word-spacing:0px;white-space:pre;stroke-width:0.264583" /></g><text
       xml:space="preserve"
       transform="matrix(0.26458333,0,0,0.26458333,-179.32652,23.670348)"
       id="text416"
       style="font-style:normal;font-variant:normal;font-weight:normal;font-stretch:normal;font-size:192px;line-height:0;font-family:mariana;-inkscape-font-specification:mariana;letter-spacing:20px;word-spacing:0px;white-space:pre;shape-inside:url(#rect418);display:inline"><tspan
         x="-107.48047"
         y="-202.07439"
         id="tspan547">RB</tspan></text><text
       xml:space="preserve"
       transform="matrix(0.26458333,0,0,0.26458333,-400.35906,123.80782)"
       id="text432"
       style="font-style:normal;font-variant:normal;font-weight:normal;font-stretch:normal;font-size:192px;line-height:0;font-family:'Kaoly Demo';-inkscape-font-specification:'Kaoly Demo';letter-spacing:20px;word-spacing:0px;white-space:pre;shape-inside:url(#rect434);display:inline"><tspan
         x="724.07812"
         y="-328.6247"
         id="tspan549">RB          </tspan></text><text
       xml:space="preserve"
       transform="matrix(0.26458333,0,0,0.26458333,-366.30795,-116.73799)"
       id="text438"
       style="font-style:normal;font-variant:normal;font-weight:normal;font-stretch:normal;font-size:192px;line-height:0;font-family:'Magic Retro';-inkscape-font-specification:'Magic Retro';letter-spacing:20px;word-spacing:0px;white-space:pre;shape-inside:url(#rect440);display:inline"><tspan
         x="599.62695"
         y="917.4418"
         id="tspan551">RB</tspan></text><path
       style="fill:#e57ba3;fill-opacity:1;stroke-width:0.407297"
       d="m -694.81994,447.29113 c -3.59042,-2.40432 -7.04632,-4.80232 -10.36301,-7.18924 -3.83131,-2.75729 -7.47685,-5.49979 -10.92942,-8.2202 -3.45257,-2.72041 -6.71217,-5.41872 -9.77156,-8.08761 -16.42748,-14.33062 -27.08304,-27.81305 -30.84961,-39.31395 -2.15666,-6.58518 -1.63951,-17.53063 1.22338,-25.8923 2.04601,-5.97585 4.36045,-9.73723 8.62143,-14.01142 6.48467,-6.5048 14.05554,-9.58285 23.57022,-9.58285 13.64611,0 26.91471,7.59233 34.56081,19.77581 1.18191,1.88328 2.24057,3.42415 2.35257,3.42415 0.11201,0 1.17067,-1.54087 2.35258,-3.42415 10.20066,-16.25398 30.3009,-23.85003 46.78777,-17.6815 8.67273,3.24488 15.75259,10.49294 19.39722,19.85804 2.18287,5.60902 2.88105,9.7182 2.9136,17.14815 0.0261,5.96085 -0.0785,7.06564 -0.92582,9.77513 -3.06828,9.81166 -11.51997,20.50577 -23.58511,33.0572 -17.42909,18.13157 1.54259,64.44922 -11.71801,64.44922 -13.66513,0 -2.49607,-29.32044 -3.95532,-40.77523 -0.28742,-2.25619 -1.06476,-3.81927 -2.61826,-4.32871 -1.5535,-0.50943 -3.88317,0.0348 -7.27528,1.99321 -7.84444,4.52899 -1.16947,16.8959 -7.00796,16.8959 -6.11736,0 -1.36857,-11.4368 -8.15017,-6.67206 -6.95051,4.88341 1.45426,19.41461 -6.21524,19.41461 -6.58451,0 -0.34149,-15.20591 -8.41481,-20.6122 z"
       id="path612"
       sodipodi:nodetypes="ssssssssssssssssssssssss" /><path
       style="fill:#e57ba3;fill-opacity:1;stroke-width:0.407297"
       d="m -867.94666,397.34429 c -3.59042,-2.40432 -7.04633,-4.80231 -10.36301,-7.18924 -12.05725,-8.67727 1.15215,45.88709 -10.92942,45.88709 -10.34868,0 7.19522,-47.39375 -9.77156,-62.1949 -16.42745,-14.33065 -27.08304,-27.81305 -30.84961,-39.31395 -2.15666,-6.58518 -1.63951,-17.53063 1.22338,-25.8923 2.04601,-5.97585 4.36045,-9.73723 8.62143,-14.01142 6.48467,-6.5048 14.05554,-9.58285 23.57022,-9.58285 13.64611,0 26.91471,7.59233 34.56081,19.77581 1.18191,1.88328 2.24057,3.42415 2.35257,3.42415 0.11201,0 1.17067,-1.54087 2.35258,-3.42415 10.20066,-16.25398 30.3009,-23.85003 46.78777,-17.6815 8.67273,3.24488 15.75259,10.49294 19.39722,19.85804 2.18287,5.60902 2.88105,9.7182 2.9136,17.14815 0.0261,5.96085 -0.0785,7.06564 -0.92582,9.77513 -3.06828,9.81166 -11.51997,20.50577 -23.58511,33.0572 -17.42909,18.13157 1.54259,64.44922 -11.71801,64.44922 -13.66513,0 -2.49607,-29.32044 -3.95532,-40.77523 -0.28742,-2.25619 -1.06476,-3.81927 -2.61826,-4.32871 -1.5535,-0.50943 -3.88317,0.0348 -7.27528,1.99321 -7.84444,4.52899 -1.16947,16.8959 -7.00796,16.8959 -6.11736,0 -1.36857,-11.4368 -8.15017,-6.67206 -6.95051,4.88341 1.45426,19.41461 -6.21524,19.41461 -6.58451,0 -0.34149,-15.20591 -8.41481,-20.6122 z"
       id="path614"
       sodipodi:nodetypes="ssssssssssssssssssssssss" /><path
       id="path702"
       style="fill:#e57ba3;fill-opacity:1;stroke-width:0.407297"
       d="m 791.31639,-46.768986 c -13.61022,-0.305381 -27.62185,7.10865 -35.59111,19.807059 -1.18191,1.883279 -2.24082,3.424081 -2.35283,3.424081 -0.112,0 -1.1704,-1.540802 -2.35231,-3.424081 -7.64609,-12.183467 -20.91458,-19.775537 -34.56068,-19.775537 -9.51467,0 -17.08599,3.078084 -23.57065,9.582878 -4.26098,4.274186 -6.57518,8.035187 -8.62118,14.011031 -2.86289,8.361665 -3.38036,19.307304 -1.2237,25.892474 1.57006,4.79404 4.35407,9.9365 8.23722,15.33705 3.9823,-2.715 9.93122,-3.77069 13.52941,-4.37234 l 14.97118,-2.50321 c 2.2907,-0.38302 4.06301,-0.84775 5.33094,-1.31206 5.84877,-2.23945 7.97338,-8.14515 6.74222,-15.5081 -1.66891,-9.980876 -8.98142,-16.494808 -16.84703,-11.731584 l 4.39095,26.260934 -14.97118,2.50372 -3.31091,-19.79828 c -1.25851,-7.52656 -6.37171,-6.924122 -6.37171,-6.924122 l -0.1912,-1.145149 26.83351,-4.487065 c 5.23587,-0.875492 9.65413,-1.109761 13.11806,-0.511597 6.92787,1.196329 11.17091,5.448843 12.38839,12.729973 1.19012,7.11752 -1.62921,13.39184 -8.02277,16.89974 -2.99909,1.67886 -5.79406,2.56663 -6.74842,2.8944 18.32157,0.0022 21.81576,24.96852 39.94278,22.58467 1.64224,-0.84886 3.79327,-2.68656 3.17397,-6.39031 l -7.19543,-43.032515 c -1.09437,-6.544837 -6.90294,-5.068941 -6.90294,-5.068941 l -0.1912,-1.145666 c 9.89907,-1.655227 20.47995,-3.256101 30.37902,-4.911329 1.86119,-0.31121 3.73088,-0.508455 5.51853,-0.489375 5.36291,0.05725 9.98668,2.05954 11.42204,8.757605 1.32612,6.421981 -2.36606,12.000931 -8.74727,13.067931 7.6089,-0.26311 14.4435,5.40611998 16.27549,14.35055 0.6303,2.99283 0.71259,5.62983 0.31213,7.94887 3.67026,-5.13634 6.33751,-9.9758 7.78815,-14.61461 0.84732,-2.70949002 0.95215,-3.81427 0.92605,-9.77512 -0.0325,-7.429939 -0.73065,-11.53929 -2.91352,-17.148304 -3.64463,-9.365091 -10.72455,-16.613343 -19.39727,-19.85822 -3.6065,-1.349364 -7.38587,-2.039945 -11.19673,-2.125451 z m -5.53506,22.973791 c -0.26986,0.0069 -0.54296,0.03289 -0.81907,0.07906 -0.73629,0.123117 -2.09957,0.519497 -2.71302,0.874365 l 3.21479,19.225704 c 6.70847,-1.12172 9.62476,-4.30092 8.43463,-11.418428 -0.7823,-4.678536 -4.06939,-8.864421 -8.11733,-8.760706 z m 4.5837,22.047754 c -0.36498,0.00715 -0.73944,0.04235 -1.12293,0.10645 l -3.35432,0.56069 3.41995,20.45301 c 0.79342,4.74501 2.69085,8.54855 7.10861,7.80986 5.4813,-0.91654 5.40968,-7.38053 4.15117,-14.9071 -1.33376,-7.97652 -4.72769,-14.13023 -10.20248,-14.02291 z m -64.71853,14.83682 c -2.6587,0.69685 -5.38572,0.98443 -5.38572,0.98443 l 2.47582,14.80788 c 1.1354,6.79024 6.86263,6.84145 6.86263,6.84145 l 0.13694,0.81855 -18.56269,3.10369 c 0.89023,0.80324 1.79304,1.60857 2.72025,2.41742 3.05938,2.66889 6.31893,5.36747 9.77149,8.08788 3.45257,2.72041 7.09826,5.46288 10.92957,8.22017 3.31668,2.38692 6.77277,4.78491 10.36319,7.18923 8.07331,5.40628 1.82997,20.61217 8.41447,20.61217 7.6695,0 -0.73538,-14.53143 6.21513,-19.41483 6.78159,-4.76474 2.03305,6.67194 8.1504,6.67194 5.83849,0 -0.83659,-12.36662 7.00785,-16.89561 3.3921,-1.9584 5.72202,-2.50259 7.27552,-1.99316 1.5535,0.50944 2.33051,2.07223 2.61793,4.32842 1.45925,11.45478 -9.7098,40.77529 3.95531,40.77529 13.26059,0 -5.71092,-46.31774 11.71815,-64.4493 2.46315,-2.56242 4.7664,-5.04359 6.91327,-7.45949 -3.00177,1.48591 -6.63841,2.53379 -10.76678,3.22409 l -16.10755,2.69338 c -1.78213,4.05075 -6.08314,10.74808 -15.40164,12.30623 -13.58054,2.27081 -23.69294,-12.94198 -29.15222,-21.95267 -2.33387,-3.89874 -4.90043,-9.18814 -10.15132,-10.91716 z m -20.35742,3.48764 c -6.01292,1.25772 -8.42493,3.93201 -7.80934,7.61349 0.17913,1.07126 0.56386,2.08445 1.13326,2.94762 0.41932,0.46773 0.83941,0.93599 1.27331,1.40663 0.96258,0.76526 2.18538,1.22203 3.65094,1.19218 -0.18412,0.49492 -0.60172,0.97987 -1.17822,1.42524 1.62129,1.67493 3.33459,3.36663 5.13199,5.07307 0.42784,-1.23568 0.60238,-2.88709 0.23306,-5.09581 z" /><path
       id="path772"
       style="fill:#e57ba3;fill-opacity:1;stroke-width:0.407297"
       d="m -697.24891,138.42205 c -13.61022,-0.30538 -27.62134,7.10865 -35.59059,19.80706 -1.18191,1.88327 -2.24082,3.42459 -2.35283,3.42459 -0.112,0 -1.17092,-1.54132 -2.35283,-3.42459 -7.64609,-12.18347 -20.91458,-19.77554 -34.56068,-19.77554 -9.51467,0 -17.08547,3.07808 -23.57014,9.58288 -4.26097,4.27418 -6.57517,8.0357 -8.62118,14.01154 -2.86288,8.36167 -3.38035,19.30679 -1.2237,25.89196 1.61841,4.94166 4.5172,10.25128 8.59069,15.8347 4.1737,-2.2073 9.85823,-2.84941 13.36353,-3.21169 l 15.35617,-1.5875 c 2.34954,-0.24283 4.17869,-0.60066 5.49527,-0.99116 6.07937,-1.90044 8.61158,-7.75966 7.83105,-15.31173 -1.05805,-10.23726 -8.06567,-17.31581 -16.35301,-12.98215 l 2.78433,26.93582 -15.35617,1.5875 -2.0991,-20.30728 c -0.79787,-7.71989 -6.0265,-7.43417 -6.0265,-7.43417 l -0.12144,-1.17409 27.52338,-2.84479 c 5.37035,-0.55504 9.87015,-0.5116 13.34802,0.31626 6.9558,1.65573 10.99179,6.24316 11.76363,13.71131 0.75452,7.30033 -2.50694,13.4886 -9.22011,16.64188 -3.15115,1.51299 -6.04459,2.23596 -7.0342,2.50785 16.5432,1.04041 21.62993,21.77457 36.16627,23.011 1.87036,0.15911 4.30652,-4.31912 3.80597,-9.16223 l -4.562,-44.13787 c -0.6938,-6.71296 -6.68279,-5.58571 -6.68279,-5.58571 l -0.12093,-1.17461 c 10.15333,-1.04937 20.99465,-2.00004 31.14797,-3.04942 7.63599,-0.7892 15.29522,0.28534 16.66875,9.47229 0.93687,6.60299 -3.16694,12.03079 -9.71207,12.70723 7.74004,0.21776 14.31614,6.40706 15.60577,15.60267 0.29783,2.0413 0.355,3.9038 0.20257,5.60947 4.0399,-5.5036 6.94611,-10.66092 8.48889,-15.59439 0.84732,-2.70949 0.95162,-3.81427 0.92552,-9.77512 -0.0326,-7.42994 -0.73065,-11.53929 -2.91351,-17.1483 -3.64463,-9.36509 -10.72455,-16.61283 -19.39727,-19.85771 -3.6065,-1.34936 -7.38587,-2.04046 -11.19673,-2.12596 z m -4.91443,23.88949 c -0.13945,0.005 -0.28008,0.0143 -0.42168,0.0289 -0.7552,0.078 -2.16439,0.39357 -2.80965,0.71469 l 2.03812,19.71921 c 6.88077,-0.71114 10.04438,-3.75171 9.28987,-11.05204 -0.51249,-4.95865 -3.77376,-9.55421 -8.09666,-9.4108 z m 3.098,22.66942 c -0.19105,0.006 -0.38469,0.0189 -0.58136,0.0393 l -3.44061,0.35606 2.16782,20.97753 c 0.503,4.86688 2.18672,8.84816 6.71794,8.37985 5.6221,-0.58106 5.96139,-7.14586 5.16351,-14.86576 -0.87375,-8.45411 -4.10463,-15.07289 -10.0273,-14.88695 z m -63.3119,16.27601 c -2.74307,0.53791 -5.52937,0.65577 -5.52937,0.65577 l 1.56993,15.18822 c 0.71982,6.9647 6.52983,7.38198 6.52983,7.38198 l 0.0868,0.83923 -15.34067,1.58543 c 0.13206,0.11575 0.25682,0.23037 0.38964,0.34623 3.05939,2.66889 6.31893,5.36747 9.7715,8.08788 3.45256,2.72041 7.09826,5.46288 10.92956,8.22017 3.31669,2.38692 6.77226,4.78491 10.36268,7.18923 8.07331,5.40628 1.83048,20.61218 8.41499,20.61218 7.66949,0 -0.73538,-14.53144 6.21512,-19.41484 6.7816,-4.76474 2.03306,6.67246 8.15041,6.67246 5.83848,0 -0.83659,-12.36714 7.00784,-16.89613 3.39211,-1.9584 5.72203,-2.50259 7.27553,-1.99316 1.55349,0.50944 2.3305,2.07275 2.61792,4.32894 1.45925,11.45478 -9.7098,40.77529 3.95532,40.77529 13.26058,0 -5.71093,-46.31775 11.71815,-64.4493 1.26685,-1.31792 2.48441,-2.61107 3.66954,-3.88917 -2.85711,1.02374 -6.15895,1.6953 -9.81594,2.07326 l -16.71577,1.72755 c -2.49197,5.21852 -2.82637,15.72702 -13.46327,16.82636 -13.92937,1.43965 -23.22433,-14.64617 -28.19156,-24.14013 -2.12054,-4.10607 -4.38856,-9.63786 -9.6082,-11.72745 z m -20.88554,2.24276 c -5.96735,0.86227 -8.60559,3.28093 -8.43256,6.84247 2.94536,3.42597 6.29312,6.93534 10.02678,10.51202 0.0513,-0.71998 0.0421,-1.52015 -0.0507,-2.41794 z" /><path
       id="path775"
       style="fill:#000000;fill-opacity:1;stroke-width:0.407297"
       d="m -349.60199,-14.467948 c -13.61022,-0.30538 -27.62134,7.1086497 -35.59059,19.8070597 -1.18191,1.88327 -2.24082,3.4245903 -2.35283,3.4245903 -0.112,0 -1.17092,-1.5413203 -2.35283,-3.4245903 -7.64609,-12.18347 -20.91458,-19.7755397 -34.56068,-19.7755397 -9.51467,0 -17.08547,3.07808 -23.57014,9.5828797 -4.26097,4.27417999 -6.57517,8.0357 -8.62118,14.0115403 -2.86288,8.36167 -3.38035,19.30679 -1.2237,25.89196 1.61841,4.94166 4.5172,10.25128 8.59069,15.8347 4.1737,-2.2073 9.85823,-2.84941 13.36353,-3.21169 l 15.35617,-1.5875 c 2.34954,-0.24283 4.17869,-0.60066 5.49527,-0.99116 6.07937,-1.90044 8.61158,-7.75966 7.83105,-15.31173 -1.05805,-10.23726 -8.06567,-17.31581 -16.35301,-12.98215 l 2.78433,26.93582 -15.35617,1.5875 -2.0991,-20.30728 c -0.79787,-7.71989 -6.0265,-7.43417 -6.0265,-7.43417 l -0.12144,-1.17409 27.52338,-2.84479 c 5.37035,-0.55504 9.87015,-0.5116 13.34802,0.31626 6.9558,1.65573 10.99179,6.24316 11.76363,13.71131 0.75452,7.30033 -2.50694,13.4886 -9.22011,16.64188 -3.15115,1.51299 -6.04459,2.23596 -7.0342,2.50785 16.5432,1.04041 21.62993,21.77457 36.16627,23.011 1.87036,0.15911 4.30652,-4.31912 3.80597,-9.16223 l -4.562,-44.13787 c -0.6938,-6.71296 -6.68279,-5.58571 -6.68279,-5.58571 l -0.12093,-1.17461 c 10.15333,-1.04937 20.99465,-2.0000403 31.14797,-3.0494203 7.63599,-0.7892 15.29522,0.28534 16.66875,9.4722903 0.93687,6.60299 -3.16694,12.03079 -9.71207,12.70723 7.74004,0.21776 14.31614,6.40706 15.60577,15.60267 0.29783,2.0413 0.355,3.9038 0.20257,5.60947 4.0399,-5.5036 6.94611,-10.66092 8.48889,-15.59439 0.84732,-2.70949 0.95162,-3.81427 0.92552,-9.77512 -0.0326,-7.42994 -0.73065,-11.53929 -2.91351,-17.1483003 -3.64463,-9.36509 -10.72455,-16.61283 -19.39727,-19.8577097 -3.6065,-1.34936 -7.38587,-2.04046 -11.19673,-2.12596 z m -4.91443,23.88949 c -0.13945,0.00463 -0.28008,0.01431 -0.42168,0.02894 -0.7552,0.07805 -2.16439,0.39357 -2.80965,0.71469 l 2.03812,19.71921 c 6.88077,-0.71114 10.04438,-3.75171 9.28987,-11.05204 -0.51249,-4.95865 -3.77376,-9.55421 -8.09666,-9.4108 z m 3.098,22.66942 c -0.19105,0.006 -0.38469,0.01895 -0.58136,0.03927 l -3.44061,0.35606 2.16782,20.97753 c 0.503,4.86688 2.18672,8.84816 6.71794,8.37985 5.6221,-0.58106 5.96139,-7.14586 5.16351,-14.86576 -0.87375,-8.45411 -4.10463,-15.07289 -10.0273,-14.88695 z m -63.3119,16.27601 c -2.74307,0.53791 -5.52937,0.65577 -5.52937,0.65577 l 1.56993,15.18822 c 0.71982,6.9647 6.52983,7.38198 6.52983,7.38198 l 0.0868,0.83923 -15.34067,1.58543 c 0.13206,0.11575 0.25682,0.23037 0.38964,0.34623 3.05939,2.66889 6.31893,5.36747 9.7715,8.08788 3.45256,2.72041 7.09826,5.46288 10.92956,8.22017 3.31669,2.38692 6.77226,4.78491 10.36268,7.18923 8.07331,5.406278 1.83048,20.612188 8.41499,20.612188 7.66949,0 -0.73538,-14.53145 6.21512,-19.414848 6.7816,-4.76474 2.03306,6.672458 8.15041,6.672458 5.83848,0 -0.83659,-12.367138 7.00784,-16.896128 3.39211,-1.9584 5.72203,-2.50259 7.27553,-1.99316 1.55349,0.50944 2.3305,2.07275 2.61792,4.32894 1.45925,11.454778 -9.7098,40.775298 3.95532,40.775298 13.26058,0 -5.71093,-46.317758 11.71815,-64.449308 1.26685,-1.31792 2.48441,-2.61107 3.66954,-3.88917 -2.85711,1.02374 -6.15895,1.6953 -9.81594,2.07326 l -16.71577,1.72755 c -2.49197,5.21852 -2.82637,15.72702 -13.46327,16.82636 -13.92937,1.43965 -23.22433,-14.64617 -28.19156,-24.14013 -2.12054,-4.10607 -4.38856,-9.63786 -9.6082,-11.72745 z m -20.88554,2.24276 c -5.96735,0.86227 -8.60559,3.28093 -8.43256,6.84247 2.94536,3.42597 6.29312,6.93534 10.02678,10.51202 0.0513,-0.71998 0.0421,-1.52015 -0.0507,-2.41794 z"
       inkscape:export-filename="..\..\..\RB logo.png"
       inkscape:export-xdpi="96"
       inkscape:export-ydpi="96" /><g
       id="g987"
       transform="translate(-48.643054,-227.49982)"><path
         id="path781"
         style="fill:#e57ba3;fill-opacity:1;stroke-width:0.407297"
         d="m -521.05199,-158.40128 c -13.61022,-0.30538 -27.62134,7.10865 -35.59059,19.80706 -1.18191,1.88327 -2.24082,3.42459 -2.35283,3.42459 -0.112,0 -1.17092,-1.54132 -2.35283,-3.42459 -7.64609,-12.18347 -20.91458,-19.77554 -34.56068,-19.77554 -9.51467,0 -17.08547,3.07808 -23.57014,9.58288 -4.26097,4.27418 -6.57517,8.0357 -8.62118,14.01154 -2.86288,8.36167 -3.38035,19.30679 -1.2237,25.89196 1.61841,4.94166 4.5172,10.251278 8.59069,15.834698 4.1737,-2.2073 9.85823,-2.84941 13.36353,-3.21169 l 15.35617,-1.5875 c 2.34954,-0.24283 4.17869,-0.60066 5.49527,-0.99116 6.07937,-1.900438 8.61158,-7.759658 7.83105,-15.311728 -1.05805,-10.23726 -8.06567,-17.31581 -16.35301,-12.98215 l 2.78433,26.93582 -15.35617,1.587498 -2.0991,-20.307278 c -0.79787,-7.71989 -6.0265,-7.43417 -6.0265,-7.43417 l -0.12144,-1.17409 27.52338,-2.84479 c 5.37035,-0.55504 9.87015,-0.5116 13.34802,0.31626 6.9558,1.65573 10.99179,6.24316 11.76363,13.71131 0.75452,7.30033 -2.50694,13.4886 -9.22011,16.641878 -3.15115,1.51299 -6.04459,2.23596 -7.0342,2.50785 16.5432,1.04041 21.62993,21.77457 36.16627,23.011 1.87036,0.15911 4.30652,-4.31912 3.80597,-9.16223 l -4.562,-44.137868 c -0.6938,-6.71296 -6.68279,-5.58571 -6.68279,-5.58571 l -0.12093,-1.17461 c 10.15333,-1.04937 20.99465,-2.00004 31.14797,-3.04942 7.63599,-0.7892 15.29522,0.28534 16.66875,9.47229 0.93687,6.60299 -3.16694,12.03079 -9.71207,12.70723 7.74004,0.21776 14.31614,6.40706 15.60577,15.602668 0.29783,2.0413 0.355,3.9038 0.20257,5.60947 4.0399,-5.5036 6.94611,-10.660918 8.48889,-15.594388 0.84732,-2.70949 0.95162,-3.81427 0.92552,-9.77512 -0.0326,-7.42994 -0.73065,-11.53929 -2.91351,-17.1483 -3.64463,-9.36509 -10.72455,-16.61283 -19.39727,-19.85771 -3.6065,-1.34936 -7.38587,-2.04046 -11.19673,-2.12596 z m -4.91443,23.88949 c -0.13945,0.005 -0.28008,0.0143 -0.42168,0.0289 -0.7552,0.0781 -2.16439,0.39357 -2.80965,0.71469 l 2.03812,19.71921 c 6.88077,-0.71114 10.04438,-3.75171 9.28987,-11.05204 -0.51249,-4.95865 -3.77376,-9.55421 -8.09666,-9.4108 z m 3.098,22.66942 c -0.19105,0.006 -0.38469,0.019 -0.58136,0.0393 l -3.44061,0.35606 2.16782,20.977528 c 0.503,4.86688 2.18672,8.84816 6.71794,8.37985 5.6221,-0.58106 5.96139,-7.14586 5.16351,-14.86576 -0.87375,-8.454108 -4.10463,-15.072888 -10.0273,-14.886948 z m -63.3119,16.276008 c -2.74307,0.53791 -5.52937,0.65577 -5.52937,0.65577 l 1.56993,15.18822 c 0.71982,6.9647 6.52983,7.38198 6.52983,7.38198 l 0.0868,0.83923 -15.34067,1.58543 c 0.13206,0.11575 0.25682,0.23037 0.38964,0.34623 3.05939,2.66889 6.31893,5.36747 9.7715,8.08788 3.45256,2.72041 7.09826,5.46288 10.92956,8.22017 3.31669,2.38692 6.77226,4.78491 10.36268,7.18923 8.07331,5.40628 1.83048,20.612185 8.41499,20.612185 7.66949,0 -0.73538,-14.531445 6.21512,-19.414845 6.7816,-4.76474 2.03306,6.67246 8.15041,6.67246 5.83848,0 -0.83659,-12.36714 7.00784,-16.89613 3.39211,-1.9584 5.72203,-2.50259 7.27553,-1.99316 1.55349,0.50944 2.3305,2.07275 2.61792,4.32894 1.45925,11.45478 -9.7098,40.775295 3.95532,40.775295 13.26058,0 -5.71093,-46.317755 11.71815,-64.449305 1.26685,-1.31792 2.48441,-2.61107 3.66954,-3.88917 -2.85711,1.02374 -6.15895,1.6953 -9.81594,2.07326 l -16.71577,1.72755 c -2.49197,5.21852 -2.82637,15.72702 -13.46327,16.82636 -13.92937,1.43965 -23.22433,-14.64617 -28.19156,-24.14013 -2.12054,-4.10607 -4.38856,-9.63786 -9.6082,-11.72745 z m -20.88554,2.24276 c -5.96735,0.86227 -8.60559,3.28093 -8.43256,6.84247 2.94536,3.42597 6.29312,6.93534 10.02678,10.51202 0.0513,-0.71998 0.0421,-1.52015 -0.0507,-2.41794 z" /><path
         sodipodi:type="star"
         style="fill:#e57ba3;fill-opacity:1;stroke-width:2.86994;stroke-linecap:square;stroke-linejoin:round;paint-order:stroke fill markers"
         id="path975"
         inkscape:flatsided="false"
         sodipodi:sides="4"
         sodipodi:cx="-795.50098"
         sodipodi:cy="-246.95703"
         sodipodi:r1="117.32235"
         sodipodi:r2="36.369926"
         sodipodi:arg1="0.55792318"
         sodipodi:arg2="1.3433213"
         inkscape:rounded="0.05"
         inkscape:randomized="0"
         d="m -695.9698,-184.84359 c -2.51865,4.0359 -86.69432,-27.75331 -91.32909,-26.68044 -4.63477,1.07286 -66.27962,66.61682 -70.31553,64.09817 -4.0359,-2.51865 27.75331,-86.69432 26.68045,-91.32909 -1.07287,-4.63477 -66.61683,-66.27961 -64.09818,-70.31552 2.51865,-4.03591 86.69432,27.7533 91.32909,26.68044 4.63477,-1.07286 66.27962,-66.61682 70.31552,-64.09817 4.03591,2.51864 -27.7533,86.69431 -26.68044,91.32908 1.07286,4.63477 66.61682,66.27962 64.09818,70.31553 z"
         inkscape:transform-center-x="-2.5580878e-06"
         inkscape:transform-center-y="-4.1560997e-06"
         transform="matrix(0.14167489,-0.09465008,0.09465008,0.14167489,-351.8502,-219.91174)" /><path
         sodipodi:type="star"
         style="fill:#e57ba3;fill-opacity:1;stroke-width:2.86994;stroke-linecap:square;stroke-linejoin:round;paint-order:stroke fill markers"
         id="path977"
         inkscape:flatsided="false"
         sodipodi:sides="4"
         sodipodi:cx="-795.50098"
         sodipodi:cy="-246.95703"
         sodipodi:r1="117.32235"
         sodipodi:r2="36.369926"
         sodipodi:arg1="0.55792318"
         sodipodi:arg2="1.3433213"
         inkscape:rounded="0.05"
         inkscape:randomized="0"
         d="m -695.9698,-184.84359 c -2.51865,4.0359 -86.69432,-27.75331 -91.32909,-26.68044 -4.63477,1.07286 -66.27962,66.61682 -70.31553,64.09817 -4.0359,-2.51865 27.75331,-86.69432 26.68045,-91.32909 -1.07287,-4.63477 -66.61683,-66.27961 -64.09818,-70.31552 2.51865,-4.03591 86.69432,27.7533 91.32909,26.68044 4.63477,-1.07286 66.27962,-66.61682 70.31552,-64.09817 4.03591,2.51864 -27.7533,86.69431 -26.68044,91.32908 1.07286,4.63477 66.61682,66.27962 64.09818,70.31553 z"
         inkscape:transform-center-x="-2.5580878e-06"
         inkscape:transform-center-y="-4.1560997e-06"
         transform="matrix(0.14167489,-0.09465008,0.09465008,0.14167489,-497.40518,-88.201317)" /><path
         sodipodi:type="star"
         style="fill:#e57ba3;fill-opacity:1;stroke-width:2.86994;stroke-linecap:square;stroke-linejoin:round;paint-order:stroke fill markers"
         id="path979"
         inkscape:flatsided="false"
         sodipodi:sides="4"
         sodipodi:cx="-795.50098"
         sodipodi:cy="-246.95703"
         sodipodi:r1="117.32235"
         sodipodi:r2="36.369926"
         sodipodi:arg1="0.55792318"
         sodipodi:arg2="1.3433213"
         inkscape:rounded="0.05"
         inkscape:randomized="0"
         d="m -695.9698,-184.84359 c -2.51865,4.0359 -86.69432,-27.75331 -91.32909,-26.68044 -4.63477,1.07286 -66.27962,66.61682 -70.31553,64.09817 -4.0359,-2.51865 27.75331,-86.69432 26.68045,-91.32909 -1.07287,-4.63477 -66.61683,-66.27961 -64.09818,-70.31552 2.51865,-4.03591 86.69432,27.7533 91.32909,26.68044 4.63477,-1.07286 66.27962,-66.61682 70.31552,-64.09817 4.03591,2.51864 -27.7533,86.69431 -26.68044,91.32908 1.07286,4.63477 66.61682,66.27962 64.09818,70.31553 z"
         inkscape:transform-center-x="-7.6250508e-06"
         inkscape:transform-center-y="-5.1907579e-06"
         transform="matrix(0.05146572,-0.03438319,0.03438319,0.05146572,-420.16032,-179.65424)" /></g><path
       id="path981"
       style="fill:#e57ba3;fill-opacity:1;stroke-width:0.407297"
       d="m -301.97699,-217.66795 c -13.61022,-0.30538 -27.62134,7.10865 -35.59059,19.80706 -1.18191,1.88327 -2.24082,3.42459 -2.35283,3.42459 -0.112,0 -1.17092,-1.54132 -2.35283,-3.42459 -7.64609,-12.18347 -20.91458,-19.77554 -34.56068,-19.77554 -9.51467,0 -17.08547,3.07808 -23.57014,9.58288 -4.26097,4.27418 -6.57517,8.0357 -8.62118,14.01154 -2.86288,8.36167 -3.38035,19.30679 -1.2237,25.89196 1.61841,4.94166 4.5172,10.25128 8.59069,15.8347 4.1737,-2.2073 9.85823,-2.84941 13.36353,-3.21169 l 15.35617,-1.5875 c 2.34954,-0.24283 4.17869,-0.60066 5.49527,-0.99116 6.07937,-1.90044 8.61158,-7.75966 7.83105,-15.31173 -1.05805,-10.23726 -8.06567,-17.31581 -16.35301,-12.98215 l 2.78433,26.93582 -15.35617,1.5875 -2.0991,-20.30728 c -0.79787,-7.71989 -6.0265,-7.43417 -6.0265,-7.43417 l -0.12144,-1.17409 27.52338,-2.84479 c 5.37035,-0.55504 9.87015,-0.5116 13.34802,0.31626 6.9558,1.65573 10.99179,6.24316 11.76363,13.71131 0.75452,7.30033 -2.50694,13.4886 -9.22011,16.64188 -3.15115,1.51299 -6.04459,2.23596 -7.0342,2.50785 16.5432,1.04041 21.62993,21.77457 36.16627,23.011 1.87036,0.15911 4.30652,-4.31912 3.80597,-9.16223 l -4.562,-44.13787 c -0.6938,-6.71296 -6.68279,-5.58571 -6.68279,-5.58571 l -0.12093,-1.17461 c 10.15333,-1.04937 20.99465,-2.00004 31.14797,-3.04942 7.63599,-0.7892 15.29522,0.28534 16.66875,9.47229 0.93687,6.60299 -3.16694,12.03079 -9.71207,12.70723 7.74004,0.21776 14.31614,6.40706 15.60577,15.60267 0.29783,2.0413 0.355,3.9038 0.20257,5.60947 4.0399,-5.5036 6.94611,-10.66092 8.48889,-15.59439 0.84732,-2.70949 0.95162,-3.81427 0.92552,-9.77512 -0.0326,-7.42994 -0.73065,-11.53929 -2.91351,-17.1483 -3.64463,-9.36509 -10.72455,-16.61283 -19.39727,-19.85771 -3.6065,-1.34936 -7.38587,-2.04046 -11.19673,-2.12596 z m -4.91443,23.88949 c -0.13945,0.005 -0.28008,0.0143 -0.42168,0.0289 -0.7552,0.0781 -2.16439,0.39357 -2.80965,0.71469 l 2.03812,19.71921 c 6.88077,-0.71114 10.04438,-3.75171 9.28987,-11.05204 -0.51249,-4.95865 -3.77376,-9.55421 -8.09666,-9.4108 z m 3.098,22.66942 c -0.19105,0.006 -0.38469,0.019 -0.58136,0.0393 l -3.44061,0.35606 2.16782,20.97753 c 0.503,4.86688 2.18672,8.84816 6.71794,8.37985 5.6221,-0.58106 5.96139,-7.14586 5.16351,-14.86576 -0.87375,-8.45411 -4.10463,-15.07289 -10.0273,-14.88695 z m -63.3119,16.27601 c -2.74307,0.53791 -5.52937,0.65577 -5.52937,0.65577 l 1.56993,15.18822 c 0.71982,6.9647 6.52983,7.38198 6.52983,7.38198 l 0.0868,0.83923 -15.34067,1.58543 c 0.13206,0.11575 0.25682,0.23037 0.38964,0.34623 3.05939,2.66889 6.31893,5.36747 9.7715,8.08788 3.45256,2.72041 7.09826,5.46288 10.92956,8.22017 3.31669,2.38692 6.77226,4.78491 10.36268,7.18923 8.07331,5.406281 1.83048,20.612186 8.41499,20.612186 7.66949,0 -0.73538,-14.531445 6.21512,-19.414846 6.7816,-4.76474 2.03306,6.672461 8.15041,6.672461 5.83848,0 -0.83659,-12.367141 7.00784,-16.896131 3.39211,-1.9584 5.72203,-2.50259 7.27553,-1.99316 1.55349,0.50944 2.3305,2.07275 2.61792,4.32894 1.45925,11.45478 -9.7098,40.775296 3.95532,40.775296 13.26058,0 -5.71093,-46.317756 11.71815,-64.449306 1.26685,-1.31792 2.48441,-2.61107 3.66954,-3.88917 -2.85711,1.02374 -6.15895,1.6953 -9.81594,2.07326 l -16.71577,1.72755 c -2.49197,5.21852 -2.82637,15.72702 -13.46327,16.82636 -13.92937,1.43965 -23.22433,-14.64617 -28.19156,-24.14013 -2.12054,-4.10607 -4.38856,-9.63786 -9.6082,-11.72745 z m -20.88554,2.24276 c -5.96735,0.86227 -8.60559,3.28093 -8.43256,6.84247 2.94536,3.42597 6.29312,6.93534 10.02678,10.51202 0.0513,-0.71998 0.0421,-1.52015 -0.0507,-2.41794 z" /><path
       id="path327"
       style="fill:#e57ba3;fill-opacity:1;stroke-width:0.407297"
       d="m -725.54574,-112.14995 c -13.61022,-0.30538 -27.62134,7.10865 -35.59059,19.807065 -1.18191,1.88327 -2.24082,3.42459 -2.35283,3.42459 -0.112,0 -1.17092,-1.54132 -2.35283,-3.42459 -7.64609,-12.183475 -20.91458,-19.775545 -34.56068,-19.775545 -9.51467,0 -17.08547,3.07808 -23.57017,9.58288 -4.2609,4.274185 -6.5751,8.035705 -8.6211,14.011545 -2.8629,8.36167 -3.3804,19.30679 -1.2237,25.89196 1.6184,4.94166 4.5172,10.25128 8.5906,15.8347 4.1737,-2.2073 9.8583,-2.84941 13.3636,-3.21169 l 15.35614,-1.5875 c 2.34954,-0.24283 4.17869,-0.60066 5.49527,-0.99116 6.07937,-1.90044 8.61158,-7.75966 7.83105,-15.31173 -1.05805,-10.23726 -8.06567,-17.31581 -16.35301,-12.98215 l 2.78433,26.93582 -15.35618,1.5875 -2.0991,-20.30728 c -0.7979,-7.71989 -6.0265,-7.43417 -6.0265,-7.43417 l -0.1214,-1.17409 27.52335,-2.84479 c 5.37035,-0.55504 9.87015,-0.5116 13.34802,0.31626 6.9558,1.65573 10.99179,6.24316 11.76363,13.71131 0.75452,7.30033 -2.50694,13.4886 -9.22011,16.64188 -3.15115,1.51299 -6.04459,2.23596 -7.0342,2.50785 16.5432,1.04041 21.62993,21.77457 36.16627,23.011 1.87036,0.15911 4.30652,-4.31912 3.80597,-9.16223 l -4.562,-44.13787 c -0.6938,-6.71296 -6.68279,-5.58571 -6.68279,-5.58571 l -0.12093,-1.17461 c 10.15333,-1.04937 20.99465,-2.00004 31.14797,-3.04942 7.63599,-0.7892 15.29522,0.28534 16.66875,9.47229 0.93687,6.60299 -3.16694,12.03079 -9.71207,12.70723 7.74004,0.21776 14.31614,6.40706 15.60577,15.60267 0.29783,2.0413 0.355,3.9038 0.20257,5.60947 4.0399,-5.5036 6.94611,-10.66092 8.48889,-15.59439 0.84732,-2.70949 0.95162,-3.81427 0.92552,-9.77512 -0.0326,-7.42994 -0.73065,-11.53929 -2.91351,-17.1483 -3.64463,-9.36509 -10.72455,-16.612835 -19.39727,-19.857715 -3.6065,-1.34936 -7.38587,-2.04046 -11.19673,-2.12596 z m -4.91443,23.889495 c -0.13945,0.005 -0.28008,0.0143 -0.42168,0.0289 -0.7552,0.0781 -2.16439,0.39357 -2.80965,0.71469 l 2.03812,19.71921 c 6.88077,-0.71114 10.04438,-3.75171 9.28987,-11.05204 -0.51249,-4.95865 -3.77376,-9.55421 -8.09666,-9.4108 z m 3.098,22.66942 c -0.19105,0.006 -0.38469,0.019 -0.58136,0.0393 l -3.44061,0.35606 2.16782,20.97753 c 0.503,4.86688 2.18672,8.84816 6.71794,8.37985 5.6221,-0.58106 5.96139,-7.14586 5.16351,-14.86576 -0.87375,-8.45411 -4.10463,-15.07289 -10.0273,-14.88695 z m -63.3119,16.27601 c -2.74307,0.53791 -5.52937,0.65577 -5.52937,0.65577 l 1.56993,15.18822 c 0.71982,6.9647 6.52983,7.38198 6.52983,7.38198 l 0.0868,0.83923 -15.34067,1.58543 c 0.13206,0.11575 0.25682,0.23037 0.38964,0.34623 3.05939,2.66889 6.31893,5.36747 9.7715,8.087881 3.45256,2.72041 7.09826,5.4628796 10.92956,8.2201736 3.31669,2.38692 6.77226,4.78491 10.36268,7.18923004 8.07331,5.40628096 1.83048,20.61218636 8.41499,20.61218636 7.66949,0 -0.73538,-14.5314454 6.21512,-19.4148464 6.7816,-4.76474 2.03306,6.672461 8.15041,6.672461 5.83848,0 -0.83659,-12.367141 7.00784,-16.896135 3.39211,-1.9583996 5.72203,-2.5025896 7.27553,-1.9931596 1.55349,0.50944 2.3305,2.0727496 2.61792,4.3289436 1.45925,11.45478 -9.7098,40.7752964 3.95532,40.7752964 13.26058,0 -5.71093,-46.31776 11.71815,-64.449311 1.26685,-1.31792 2.48441,-2.61107 3.66954,-3.88917 -2.85711,1.02374 -6.15895,1.6953 -9.81594,2.07326 l -16.71577,1.72755 c -2.49197,5.21852 -2.82637,15.727021 -13.46327,16.826361 -13.92937,1.43965 -23.22433,-14.646171 -28.19156,-24.140131 -2.12054,-4.10607 -4.38856,-9.63786 -9.6082,-11.72745 z m -20.88557,2.24276 c -5.9673,0.86227 -8.6056,3.28093 -8.4325,6.84247 2.9453,3.42597 6.2931,6.93534 10.0268,10.51202 0.051,-0.71998 0.042,-1.52015 -0.051,-2.41794 z" /><circle
       style="fill:none;stroke:#000000;stroke-width:3.70417;stroke-linecap:square;stroke-linejoin:round;stroke-dasharray:none;stroke-opacity:1;paint-order:stroke fill markers"
       id="path445"
       cx="-990.93774"
       cy="-190.08208"
       r="14.596347" /><path
       id="path1109"
       style="fill:none;stroke:#000000;stroke-width:3.87576;stroke-linecap:butt;stroke-linejoin:miter;stroke-dasharray:none;stroke-opacity:1"
       d="m -1000.459,-178.86558 -5.2272,36.12581 z m 19.04246,0 5.2273,36.12581 z" /><g
       id="g1244"
       transform="translate(-3.9144092)"><path
         style="fill:none;stroke:#000000;stroke-width:3.70417;stroke-linecap:round;stroke-linejoin:miter;stroke-dasharray:none;stroke-opacity:1"
         d="m -1003.9178,-121.98181 -6.7352,140.316499 23.57321,41.907862"
         id="path1232" /><path
         style="fill:none;stroke:#000000;stroke-width:3.70417;stroke-linecap:round;stroke-linejoin:miter;stroke-dasharray:none;stroke-opacity:1"
         d="m -970.12892,-121.98181 6.7352,140.316499 -23.57319,41.907862"
         id="path1234" /></g><g
       id="g1248"><path
         style="fill:none;stroke:#000000;stroke-width:3.70416668;stroke-linecap:butt;stroke-linejoin:miter;stroke-opacity:1;stroke-dasharray:none"
         d="m -990.07323,-120.4851 -39.66277,-6.73519 v -14.9671 h 38.91442"
         id="path1236" /><path
         style="fill:none;stroke:#000000;stroke-width:3.70417;stroke-linecap:butt;stroke-linejoin:miter;stroke-dasharray:none;stroke-opacity:1"
         d="m -991.80229,-120.4851 39.66275,-6.73519 v -14.9671 h -38.91445"
         id="path1238" /></g><g
       id="g1349"
       style="fill:#110308;fill-opacity:1"
       transform="translate(59.12002,26.192414)"><path
         style="color:#000000;fill:#110308;fill-opacity:1;stroke-linecap:square;stroke-linejoin:round;paint-order:stroke fill markers"
         d="m -1178.2617,-228.75586 c -9.0623,0 -16.4492,7.38695 -16.4492,16.44922 0,9.06227 7.3869,16.44726 16.4492,16.44727 9.0623,0 16.4472,-7.385 16.4472,-16.44727 0,-9.06227 -7.3849,-16.44922 -16.4472,-16.44922 z m 0,3.70508 c 7.0604,0 12.7441,5.68375 12.7441,12.74414 0,7.06039 -5.6837,12.74414 -12.7441,12.74414 -7.0604,0 -12.7461,-5.68375 -12.7461,-12.74414 0,-7.06039 5.6857,-12.74414 12.7461,-12.74414 z"
         id="circle1266" /><path
         style="color:#000000;fill:#110308;fill-opacity:1;-inkscape-stroke:none"
         d="m -1189.7012,-201.36719 -5.2285,36.125 3.8359,0.55469 5.2286,-36.125 z m 22.877,0 -3.836,0.55469 5.2286,36.125 3.8359,-0.55469 z"
         id="path1268" /><g
         id="g1274"
         transform="translate(-191.23941,-22.225)"
         style="fill:#110308;fill-opacity:1"><path
           style="color:#000000;fill:#110308;fill-opacity:1;stroke-linecap:round;-inkscape-stroke:none"
           d="m -1003.8281,-123.83203 a 1.852085,1.852085 0 0 0 -1.9395,1.76172 l -6.7617,140.847654 23.83594,42.373047 a 1.852085,1.852085 0 0 0 2.52149,0.707031 1.852085,1.852085 0 0 0 0.70703,-2.523438 l -23.31246,-41.443359 6.7089,-139.783205 a 1.852085,1.852085 0 0 0 -1.7597,-1.93945 z"
           id="path1270" /><path
           style="color:#000000;fill:#110308;fill-opacity:1;stroke-linecap:round;-inkscape-stroke:none"
           d="m -970.2168,-123.83203 a 1.852085,1.852085 0 0 0 -1.76172,1.93945 l 6.70899,139.783205 -23.3125,41.443359 a 1.852085,1.852085 0 0 0 0.70703,2.523438 1.852085,1.852085 0 0 0 2.52148,-0.707031 l 23.83594,-42.373047 -6.76172,-140.847654 a 1.852085,1.852085 0 0 0 -1.9375,-1.76172 z"
           id="path1272" /></g><g
         id="g1280"
         transform="translate(-187.325,-22.225)"
         style="fill:#110308;fill-opacity:1"><path
           style="color:#000000;fill:#110308;fill-opacity:1;-inkscape-stroke:none"
           d="m -1031.5879,-144.03906 v 18.38281 l 41.20509,6.99805 0.61914,-3.65235 -38.12113,-6.47461 v -11.55078 h 37.06253 v -3.70312 z"
           id="path1276" /><path
           style="color:#000000;fill:#110308;fill-opacity:1;-inkscape-stroke:none"
           d="m -991.05469,-144.03906 v 3.70312 h 37.0625 v 11.55078 l -38.12109,6.47461 0.62109,3.65235 41.20508,-6.99805 v -18.38281 z"
           id="path1278" /></g></g><g
       id="g1367"
       style="fill:#110308;fill-opacity:1"
       transform="translate(-174.625,-2.4266453)"><path
         style="color:#000000;fill:#110308;fill-opacity:1;stroke-linecap:square;stroke-linejoin:round;paint-order:stroke fill markers"
         d="m -1178.2617,-228.75586 c -9.0623,0 -16.4492,7.38695 -16.4492,16.44922 0,9.06227 7.3869,16.44726 16.4492,16.44727 9.0623,0 16.4472,-7.385 16.4472,-16.44727 0,-9.06227 -7.3849,-16.44922 -16.4472,-16.44922 z m 0,3.70508 c 7.0604,0 12.7441,5.68375 12.7441,12.74414 0,7.06039 -5.6837,12.74414 -12.7441,12.74414 -7.0604,0 -12.7461,-5.68375 -12.7461,-12.74414 0,-7.06039 5.6857,-12.74414 12.7461,-12.74414 z"
         id="path1351" /><path
         style="color:#000000;fill:#110308;fill-opacity:1;-inkscape-stroke:none"
         d="m -1189.7012,-201.36719 -5.2285,36.125 3.8359,0.55469 5.2286,-36.125 z m 22.877,0 -3.836,0.55469 5.2286,36.125 3.8359,-0.55469 z"
         id="path1353" /><g
         id="g1359"
         transform="translate(-191.23941,-22.225)"
         style="fill:#110308;fill-opacity:1"><path
           style="color:#000000;fill:#110308;fill-opacity:1;stroke-linecap:round;-inkscape-stroke:none"
           d="m -1003.8281,-123.83203 a 1.852085,1.852085 0 0 0 -1.9395,1.76172 l -6.7617,140.847654 23.83594,42.373047 a 1.852085,1.852085 0 0 0 2.52149,0.707031 1.852085,1.852085 0 0 0 0.70703,-2.523438 l -23.31246,-41.443359 6.7089,-139.783205 a 1.852085,1.852085 0 0 0 -1.7597,-1.93945 z"
           id="path1355" /><path
           style="color:#000000;fill:#110308;fill-opacity:1;stroke-linecap:round;-inkscape-stroke:none"
           d="m -970.2168,-123.83203 a 1.852085,1.852085 0 0 0 -1.76172,1.93945 l 6.70899,139.783205 -23.3125,41.443359 a 1.852085,1.852085 0 0 0 0.70703,2.523438 1.852085,1.852085 0 0 0 2.52148,-0.707031 l 23.83594,-42.373047 -6.76172,-140.847654 a 1.852085,1.852085 0 0 0 -1.9375,-1.76172 z"
           id="path1357" /></g><g
         id="g1365"
         transform="translate(-187.325,-22.225)"
         style="fill:#110308;fill-opacity:1"><path
           style="color:#000000;fill:#110308;fill-opacity:1;-inkscape-stroke:none"
           d="m -1031.5879,-144.03906 v 18.38281 l 41.20509,6.99805 0.61914,-3.65235 -38.12113,-6.47461 v -11.55078 h 37.06253 v -3.70312 z"
           id="path1361" /><path
           style="color:#000000;fill:#110308;fill-opacity:1;-inkscape-stroke:none"
           d="m -991.05469,-144.03906 v 3.70312 h 37.0625 v 11.55078 l -38.12109,6.47461 0.62109,3.65235 41.20508,-6.99805 v -18.38281 z"
           id="path1363" /></g></g><path
       style="fill:#eb9bb9;fill-opacity:1;stroke-width:0.407297"
       d="m -353.18965,355.7187 c -3.59042,-2.40432 -7.04632,-4.80232 -10.36301,-7.18924 -3.83131,-2.75729 -7.47685,-5.49979 -10.92942,-8.2202 -3.45257,-2.72041 -6.71217,-5.41872 -9.77156,-8.08761 -16.42748,-14.33062 -27.08304,-27.81305 -30.84961,-39.31395 -2.15666,-6.58518 -1.63951,-17.53063 1.22338,-25.8923 2.04601,-5.97585 4.36045,-9.73723 8.62143,-14.01142 6.48467,-6.5048 14.05554,-9.58285 23.57022,-9.58285 13.64611,0 26.91471,7.59233 34.56081,19.77581 1.18191,1.88328 2.24057,3.42415 2.35257,3.42415 0.11201,0 1.17067,-1.54087 2.35258,-3.42415 10.20066,-16.25398 30.3009,-23.85003 46.78777,-17.6815 8.67273,3.24488 15.75259,10.49294 19.39722,19.85804 2.18287,5.60902 3.6748,9.7182 3.70735,17.14815 0.0261,5.96085 -0.87225,7.06564 -1.71957,9.77513 -3.06828,9.81166 -11.51997,20.50577 -23.58511,33.0572 -17.42909,18.13157 1.54259,64.44922 -11.71801,64.44922 -13.66513,0 -2.49607,-29.32044 -3.95532,-40.77523 -0.28742,-2.25619 -1.06476,-3.81927 -2.61826,-4.32871 -1.5535,-0.50943 -3.88317,0.0348 -7.27528,1.99321 -7.84444,4.52899 -1.16947,16.8959 -7.00796,16.8959 -6.11736,0 -1.36857,-11.4368 -8.15017,-6.67206 -6.95051,4.88341 1.45426,19.41461 -6.21524,19.41461 -6.58451,0 -0.34149,-15.20591 -8.41481,-20.6122 z"
       id="path482"
       sodipodi:nodetypes="ssssssssssssssssssssssss"
       inkscape:export-filename="brantley_logo.png"
       inkscape:export-xdpi="96"
       inkscape:export-ydpi="96" /><path
       style="fill:none;fill-opacity:1;stroke-width:2.64583334;stroke:#000000;stroke-opacity:1;stroke-dasharray:none"
       d="m -348.74494,353.09946 c -3.59042,-2.40432 -7.04632,-4.80232 -10.36301,-7.18924 -3.83131,-2.75729 -7.47685,-5.49979 -10.92942,-8.2202 -3.45257,-2.72041 -6.71217,-5.41872 -9.77156,-8.08761 -16.42748,-14.33062 -27.08304,-27.81305 -30.84961,-39.31395 -2.15666,-6.58518 -1.63951,-17.53063 1.22338,-25.8923 2.04601,-5.97585 4.36045,-9.73723 8.62143,-14.01142 6.48467,-6.5048 14.05554,-9.58285 23.57022,-9.58285 13.64611,0 26.91471,7.59233 34.56081,19.77581 1.18191,1.88328 2.24057,3.42415 2.35257,3.42415 0.11201,0 1.17067,-1.54087 2.35258,-3.42415 10.20066,-16.25398 30.3009,-23.85003 46.78777,-17.6815 8.67273,3.24488 15.75259,10.49294 19.39722,19.85804 2.18287,5.60902 3.6748,9.7182 3.70735,17.14815 0.0261,5.96085 -0.87225,7.06564 -1.71957,9.77513 -3.06828,9.81166 -11.51997,20.50577 -23.58511,33.0572 -17.42909,18.13157 1.54259,64.44922 -11.71801,64.44922 -13.66513,0 -2.49607,-29.32044 -3.95532,-40.77523 -0.28742,-2.25619 -1.06476,-3.81927 -2.61826,-4.32871 -1.5535,-0.50943 -3.88317,0.0348 -7.27528,1.99321 -7.84444,4.52899 -1.16947,16.8959 -7.00796,16.8959 -6.11736,0 -1.36857,-11.4368 -8.15017,-6.67206 -6.95051,4.88341 1.45426,19.41461 -6.21524,19.41461 -6.58451,0 -0.34149,-15.20591 -8.41481,-20.6122 z"
       id="path1136"
       sodipodi:nodetypes="ssssssssssssssssssssssss" /><g
       id="g1868"
       transform="matrix(1.4828131,-0.25033822,0.25033822,1.4828131,-334.02175,410.42314)"><path
         d="m -0.10519302,-73.28242 c 0.6096,-0.1016 2.38760002,-0.3556 4.36880002,-1.0668 4.2164,-1.4732 6.5532,-4.9784 6.5532,-9.398 0,-4.5212 -2.1336,-7.5184 -6.1976,-8.9408 -2.032,-0.7112 -4.72440002,-1.016 -7.9756,-1.016 h -16.6624 v 0.7112 c 0,0 3.1496,0.1524 3.1496,4.826 v 12.2936 h 9.2964 v -16.3068 c 5.2324,-2.0828 8.9916,2.5908 8.9916,8.7884 0,4.572 -1.87960002,7.9248 -5.6388,8.6868 -0.8128,0.1524 -1.9304,0.254 -3.3528,0.254 h -9.2964 c -3.81,0 -11.8872,0.1016 -11.8872,6.096 0,6.0452 8.3312,5.4864 9.4996,3.4544 -2.0828,-0.3048 -3.0988,-2.0828 -3.0988,-3.9624 0,-2.286 1.7272,-3.6576 5.4864,-3.81 v 9.0424 c 0,4.6736 -3.1496,4.826 -3.1496,4.826 v 0.6604 h 15.9004 v -0.508 c 0,0 -3.4544,-0.6096 -3.4544,-4.826 v -9.1948 c 0,0 1.6764,0.1016 3.3528,-0.0508 2.9972,1.5748 4.01319998,5.0292 5.02919998,7.62 2.38760002,5.9944 6.95960002,16.2052 15.39240002,16.2052 8.4328,0 13.71441,-10.779654 13.71441,-10.779654 -17.5768,5.588 -17.27041,-11.470746 -30.02121002,-13.604346 z"
         id="path1864"
         style="font-size:192px;line-height:0;font-family:Rockabye;-inkscape-font-specification:Rockabye;letter-spacing:20px;word-spacing:0px;white-space:pre;stroke-width:0.264583"
         sodipodi:nodetypes="ccsssccscccscssscscsccccscccscc" /><path
         d="m 35.427157,-58.14402 c 8.5852,0 14.2748,-2.9464 13.9192,-11.43 -0.2032,-5.588 -3.7592,-9.7028 -8.382,-10.3124 3.9624,0 6.7564,-2.9972 6.604,-7.0104 -0.254,-5.588 -4.7752,-6.7056 -9.398,-6.7056 -6.1468,0 -12.7,-0.1016 -18.8468,-0.1016 v 0.7112 c 0,0 3.6576,-0.3048 3.6576,3.7592 v 26.7208 c 0,3.6068 -3.6576,3.7592 -3.6576,3.7592 v 0.6096 z m -3.1496,-33.9344 c 0.4064,-0.1524 1.27,-0.254 1.7272,-0.254 2.7432,0 4.5212,3.048 4.5212,6.1468 0,4.4196 -2.0828,6.0452 -6.2484,6.0452 z m 0,13.5128 h 2.0828 c 3.81,0 5.4356,4.2672 5.4356,9.5504 0,4.6736 -0.6096,8.5852 -4.0132,8.5852 -2.7432,0 -3.5052,-2.4892 -3.5052,-5.4356 z"
         id="path1866"
         style="font-size:192px;line-height:0;font-family:Rockabye;-inkscape-font-specification:Rockabye;letter-spacing:20px;word-spacing:0px;white-space:pre;stroke-width:0.264583" /></g><path
       style="fill:#cccccc;fill-opacity:1;stroke-width:0.407297"
       d="m -153.37895,370.68579 c -3.59042,-2.40432 -7.04632,-4.80232 -10.36301,-7.18924 -3.83131,-2.75729 -7.47685,-5.49979 -10.92942,-8.2202 -3.45257,-2.72041 -6.71217,-5.41872 -9.77156,-8.08761 -16.42748,-14.33062 -27.08304,-27.81305 -30.84961,-39.31395 -2.15666,-6.58518 -1.63951,-17.53063 1.22338,-25.8923 2.04601,-5.97585 4.36045,-9.73723 8.62143,-14.01142 6.48467,-6.5048 14.05554,-9.58285 23.57022,-9.58285 13.64611,0 26.91471,7.59233 34.56081,19.77581 1.18191,1.88328 2.24057,3.42415 2.35257,3.42415 0.11201,0 1.17067,-1.54087 2.35258,-3.42415 10.20066,-16.25398 30.3009,-23.85003 46.78777,-17.6815 8.67273,3.24488 15.75259,10.49294 19.39722,19.85804 2.18287,5.60902 3.6748,9.7182 3.70735,17.14815 0.0261,5.96085 -0.87225,7.06564 -1.71957,9.77513 -3.06828,9.81166 -11.51997,20.50577 -23.58511,33.0572 -17.42909,18.13157 1.54259,64.44922 -11.71801,64.44922 -13.66513,0 -2.49607,-29.32044 -3.95532,-40.77523 -0.28742,-2.25619 -1.06476,-3.81927 -2.61826,-4.32871 -1.5535,-0.50943 -3.88317,0.0348 -7.27528,1.99321 -7.84444,4.52899 -1.16947,16.8959 -7.00796,16.8959 -6.11736,0 -1.36857,-11.4368 -8.15017,-6.67206 -6.95051,4.88341 1.45426,19.41461 -6.21524,19.41461 -6.58451,0 -0.34149,-15.20591 -8.41481,-20.6122 z"
       id="path1870"
       sodipodi:nodetypes="ssssssssssssssssssssssss" /><path
       style="fill:none;fill-opacity:1;stroke:#000000;stroke-width:2.64583;stroke-dasharray:none;stroke-opacity:1"
       d="m -148.93424,368.06655 c -3.59042,-2.40432 -7.04632,-4.80232 -10.36301,-7.18924 -3.83131,-2.75729 -7.47685,-5.49979 -10.92942,-8.2202 -3.45257,-2.72041 -6.71217,-5.41872 -9.77156,-8.08761 -16.42748,-14.33062 -27.08304,-27.81305 -30.84961,-39.31395 -2.15666,-6.58518 -1.63951,-17.53063 1.22338,-25.8923 2.04601,-5.97585 4.36045,-9.73723 8.62143,-14.01142 6.48467,-6.5048 14.05554,-9.58285 23.57022,-9.58285 13.64611,0 26.91471,7.59233 34.56081,19.77581 1.18191,1.88328 2.24057,3.42415 2.35257,3.42415 0.11201,0 1.17067,-1.54087 2.35258,-3.42415 10.20066,-16.25398 30.3009,-23.85003 46.78777,-17.6815 8.67273,3.24488 15.75259,10.49294 19.39722,19.85804 2.18287,5.60902 3.6748,9.7182 3.70735,17.14815 0.0261,5.96085 -0.87225,7.06564 -1.71957,9.77513 -3.06828,9.81166 -11.51997,20.50577 -23.58511,33.0572 -17.42909,18.13157 1.54259,64.44922 -11.71801,64.44922 -13.66513,0 -2.49607,-29.32044 -3.95532,-40.77523 -0.28742,-2.25619 -1.06476,-3.81927 -2.61826,-4.32871 -1.5535,-0.50943 -3.88317,0.0348 -7.27528,1.99321 -7.84444,4.52899 -1.16947,16.8959 -7.00796,16.8959 -6.11736,0 -1.36857,-11.4368 -8.15017,-6.67206 -6.95051,4.88341 1.45426,19.41461 -6.21524,19.41461 -6.58451,0 -0.34149,-15.20591 -8.41481,-20.6122 z"
       id="path1872"
       sodipodi:nodetypes="ssssssssssssssssssssssss" /><g
       id="g1878"
       transform="matrix(1.4828131,-0.25033822,0.25033822,1.4828131,-134.21105,425.39023)"><path
         d="m -0.10519302,-73.28242 c 0.6096,-0.1016 2.38760002,-0.3556 4.36880002,-1.0668 4.2164,-1.4732 6.5532,-4.9784 6.5532,-9.398 0,-4.5212 -2.1336,-7.5184 -6.1976,-8.9408 -2.032,-0.7112 -4.72440002,-1.016 -7.9756,-1.016 h -16.6624 v 0.7112 c 0,0 3.1496,0.1524 3.1496,4.826 v 12.2936 h 9.2964 v -16.3068 c 5.2324,-2.0828 8.9916,2.5908 8.9916,8.7884 0,4.572 -1.87960002,7.9248 -5.6388,8.6868 -0.8128,0.1524 -1.9304,0.254 -3.3528,0.254 h -9.2964 c -3.81,0 -11.8872,0.1016 -11.8872,6.096 0,6.0452 8.3312,5.4864 9.4996,3.4544 -2.0828,-0.3048 -3.0988,-2.0828 -3.0988,-3.9624 0,-2.286 1.7272,-3.6576 5.4864,-3.81 v 9.0424 c 0,4.6736 -3.1496,4.826 -3.1496,4.826 v 0.6604 h 15.9004 v -0.508 c 0,0 -3.4544,-0.6096 -3.4544,-4.826 v -9.1948 c 0,0 1.6764,0.1016 3.3528,-0.0508 2.9972,1.5748 4.01319998,5.0292 5.02919998,7.62 2.38760002,5.9944 6.95960002,16.2052 15.39240002,16.2052 8.4328,0 13.71441,-10.779654 13.71441,-10.779654 -17.5768,5.588 -17.27041,-11.470746 -30.02121002,-13.604346 z"
         id="path1874"
         style="font-size:192px;line-height:0;font-family:Rockabye;-inkscape-font-specification:Rockabye;letter-spacing:20px;word-spacing:0px;white-space:pre;stroke-width:0.264583"
         sodipodi:nodetypes="ccsssccscccscssscscsccccscccscc" /><path
         d="m 35.427157,-58.14402 c 8.5852,0 14.2748,-2.9464 13.9192,-11.43 -0.2032,-5.588 -3.7592,-9.7028 -8.382,-10.3124 3.9624,0 6.7564,-2.9972 6.604,-7.0104 -0.254,-5.588 -4.7752,-6.7056 -9.398,-6.7056 -6.1468,0 -12.7,-0.1016 -18.8468,-0.1016 v 0.7112 c 0,0 3.6576,-0.3048 3.6576,3.7592 v 26.7208 c 0,3.6068 -3.6576,3.7592 -3.6576,3.7592 v 0.6096 z m -3.1496,-33.9344 c 0.4064,-0.1524 1.27,-0.254 1.7272,-0.254 2.7432,0 4.5212,3.048 4.5212,6.1468 0,4.4196 -2.0828,6.0452 -6.2484,6.0452 z m 0,13.5128 h 2.0828 c 3.81,0 5.4356,4.2672 5.4356,9.5504 0,4.6736 -0.6096,8.5852 -4.0132,8.5852 -2.7432,0 -3.5052,-2.4892 -3.5052,-5.4356 z"
         id="path1876"
         style="font-size:192px;line-height:0;font-family:Rockabye;-inkscape-font-specification:Rockabye;letter-spacing:20px;word-spacing:0px;white-space:pre;stroke-width:0.264583" /></g><path
       id="path1880"
       style="fill:#e57ba3;fill-opacity:1;stroke-width:0.407297"
       d="m -250.35407,470.99172 c -13.61022,-0.30538 -27.62134,7.10865 -35.59059,19.80706 -1.18191,1.88327 -2.24082,3.42459 -2.35283,3.42459 -0.112,0 -1.17092,-1.54132 -2.35283,-3.42459 -7.64609,-12.18347 -20.91458,-19.77554 -34.56068,-19.77554 -9.51467,0 -17.08547,3.07808 -23.57017,9.58288 -4.2609,4.27418 -6.5751,8.0357 -8.6211,14.01154 -2.8629,8.36167 -3.3804,19.30679 -1.2237,25.89196 1.6184,4.94166 4.5172,10.25128 8.5906,15.8347 4.1737,-2.2073 9.8583,-2.84941 13.3636,-3.21169 l 15.35614,-1.5875 c 2.34954,-0.24283 4.17869,-0.60066 5.49527,-0.99116 6.07937,-1.90044 8.61158,-7.75966 7.83105,-15.31173 -1.05805,-10.23726 -8.06567,-17.31581 -16.35301,-12.98215 l 2.78433,26.93582 -15.35618,1.5875 -2.0991,-20.30728 c -0.7979,-7.71989 -6.0265,-7.43417 -6.0265,-7.43417 l -0.1214,-1.17409 27.52335,-2.84479 c 5.37035,-0.55504 9.87015,-0.5116 13.34802,0.31626 6.9558,1.65573 10.99179,6.24316 11.76363,13.71131 0.75452,7.30033 -2.50694,13.4886 -9.22011,16.64188 -3.15115,1.51299 -6.04459,2.23596 -7.0342,2.50785 16.5432,1.04041 21.62993,21.77457 36.16627,23.011 1.87036,0.15911 4.30652,-4.31912 3.80597,-9.16223 l -4.562,-44.13787 c -0.6938,-6.71296 -6.68279,-5.58571 -6.68279,-5.58571 l -0.12093,-1.17461 c 10.15333,-1.04937 20.99465,-2.00004 31.14797,-3.04942 7.63599,-0.7892 15.29522,0.28534 16.66875,9.47229 0.93687,6.60299 -3.16694,12.03079 -9.71207,12.70723 7.74004,0.21776 14.31614,6.40706 15.60577,15.60267 0.29783,2.0413 0.355,3.9038 0.20257,5.60947 4.0399,-5.5036 6.94611,-10.66092 8.48889,-15.59439 0.84732,-2.70949 0.95162,-3.81427 0.92552,-9.77512 -0.0326,-7.42994 -0.73065,-11.53929 -2.91351,-17.1483 -3.64463,-9.36509 -10.72455,-16.61283 -19.39727,-19.85771 -3.6065,-1.34936 -7.38587,-2.04046 -11.19673,-2.12596 z m -4.91443,23.88949 c -0.13945,0.005 -0.28008,0.0143 -0.42168,0.0289 -0.7552,0.0781 -2.16439,0.39357 -2.80965,0.71469 l 2.03812,19.71921 c 6.88077,-0.71114 10.04438,-3.75171 9.28987,-11.05204 -0.51249,-4.95865 -3.77376,-9.55421 -8.09666,-9.4108 z m 3.098,22.66942 c -0.19105,0.006 -0.38469,0.019 -0.58136,0.0393 l -3.44061,0.35606 2.16782,20.97753 c 0.503,4.86688 2.18672,8.84816 6.71794,8.37985 5.6221,-0.58106 5.96139,-7.14586 5.16351,-14.86576 -0.87375,-8.45411 -4.10463,-15.07289 -10.0273,-14.88695 z m -63.3119,16.27601 c -2.74307,0.53791 -5.52937,0.65577 -5.52937,0.65577 l 1.56993,15.18822 c 0.71982,6.9647 6.52983,7.38198 6.52983,7.38198 l 0.0868,0.83923 -15.34067,1.58543 c 0.13206,0.11575 0.25682,0.23037 0.38964,0.34623 3.05939,2.66889 6.31893,5.36747 9.7715,8.08789 3.45256,2.72041 7.09826,5.46287 10.92956,8.22017 3.31669,2.38692 6.77226,4.78491 10.36268,7.18923 8.07331,5.40628 1.83048,20.61219 8.41499,20.61219 7.66949,0 -0.73538,-14.53145 6.21512,-19.41485 6.7816,-4.76474 2.03306,6.67246 8.15041,6.67246 5.83848,0 -0.83659,-12.36714 7.00784,-16.89614 3.39211,-1.95839 5.72203,-2.50258 7.27553,-1.99315 1.55349,0.50944 2.3305,2.07274 2.61792,4.32894 1.45925,11.45478 -9.7098,40.7753 3.95532,40.7753 13.26058,0 -5.71093,-46.31776 11.71815,-64.44932 1.26685,-1.31792 2.48441,-2.61107 3.66954,-3.88917 -2.85711,1.02374 -6.15895,1.6953 -9.81594,2.07326 l -16.71577,1.72755 c -2.49197,5.21852 -2.82637,15.72703 -13.46327,16.82637 -13.92937,1.43965 -23.22433,-14.64618 -28.19156,-24.14014 -2.12054,-4.10607 -4.38856,-9.63786 -9.6082,-11.72745 z m -20.88557,2.24276 c -5.9673,0.86227 -8.6056,3.28093 -8.4325,6.84247 2.9453,3.42597 6.2931,6.93534 10.0268,10.51202 0.051,-0.71998 0.042,-1.52015 -0.051,-2.41794 z" /><path
       style="fill:none;fill-opacity:1;stroke:#000000;stroke-width:2.64583;stroke-dasharray:none;stroke-opacity:1"
       d="m -291.59494,580.73192 c -3.59042,-2.40432 -7.04632,-4.80232 -10.36301,-7.18924 -3.83131,-2.75729 -7.47685,-5.49979 -10.92942,-8.2202 -3.45257,-2.72041 -6.71217,-5.41872 -9.77156,-8.08761 -16.42748,-14.33062 -27.08304,-27.81305 -30.84961,-39.31395 -2.15666,-6.58518 -1.63951,-17.53063 1.22338,-25.8923 2.04601,-5.97585 4.36045,-9.73723 8.62143,-14.01142 6.48467,-6.5048 14.05554,-9.58285 23.57022,-9.58285 13.64611,0 26.91471,7.59233 34.56081,19.77581 1.18191,1.88328 2.24057,3.42415 2.35257,3.42415 0.11201,0 1.17067,-1.54087 2.35258,-3.42415 10.20066,-16.25398 30.3009,-23.85003 46.78777,-17.6815 8.67273,3.24488 15.75259,10.49294 19.39722,19.85804 2.18287,5.60902 3.6748,9.7182 3.70735,17.14815 0.0261,5.96085 -0.87225,7.06564 -1.71957,9.77513 -3.06828,9.81166 -11.51997,20.50577 -23.58511,33.0572 -17.42909,18.13157 1.54259,64.44922 -11.71801,64.44922 -13.66513,0 -2.49607,-29.32044 -3.95532,-40.77523 -0.28742,-2.25619 -1.06476,-3.81927 -2.61826,-4.32871 -1.5535,-0.50943 -3.88317,0.0348 -7.27528,1.99321 -7.84444,4.52899 -1.16947,16.8959 -7.00796,16.8959 -6.11736,0 -1.36857,-11.4368 -8.15017,-6.67206 -6.95051,4.88341 1.45426,19.41461 -6.21524,19.41461 -6.58451,0 -0.34149,-15.20591 -8.41481,-20.6122 z"
       id="path1882"
       sodipodi:nodetypes="ssssssssssssssssssssssss" /><path
       id="path1884"
       style="fill:#cccccc;fill-opacity:1;stroke-width:0.407297"
       d="m -59.523626,457.52134 c -13.61022,-0.30538 -27.621342,7.10865 -35.590592,19.80706 -1.18191,1.88327 -2.24082,3.42459 -2.35283,3.42459 -0.112,0 -1.17092,-1.54132 -2.35283,-3.42459 -7.646092,-12.18347 -20.914582,-19.77554 -34.560682,-19.77554 -9.51467,0 -17.08547,3.07808 -23.57017,9.58288 -4.2609,4.27418 -6.5751,8.0357 -8.6211,14.01154 -2.8629,8.36167 -3.3804,19.30679 -1.2237,25.89196 1.6184,4.94166 4.5172,10.25128 8.5906,15.8347 4.1737,-2.2073 9.8583,-2.84941 13.3636,-3.21169 l 15.35614,-1.5875 c 2.34954,-0.24283 4.17869,-0.60066 5.49527,-0.99116 6.07937,-1.90044 8.61158,-7.75966 7.83105,-15.31173 -1.05805,-10.23726 -8.06567,-17.31581 -16.35301,-12.98215 l 2.78433,26.93582 -15.35618,1.5875 -2.0991,-20.30728 c -0.7979,-7.71989 -6.0265,-7.43417 -6.0265,-7.43417 l -0.1214,-1.17409 27.52335,-2.84479 c 5.37035,-0.55504 9.87015,-0.5116 13.34802,0.31626 6.9558,1.65573 10.99179,6.24316 11.76363,13.71131 0.75452,7.30033 -2.50694,13.4886 -9.22011,16.64188 -3.15115,1.51299 -6.04459,2.23596 -7.0342,2.50785 16.5432,1.04041 21.629932,21.77457 36.166272,23.011 1.870362,0.15911 4.306522,-4.31912 3.805972,-9.16223 l -4.562002,-44.13787 c -0.6938,-6.71296 -6.68279,-5.58571 -6.68279,-5.58571 l -0.12093,-1.17461 c 10.153332,-1.04937 20.994652,-2.00004 31.147972,-3.04942 7.63599,-0.7892 15.29522,0.28534 16.66875,9.47229 0.93687,6.60299 -3.16694,12.03079 -9.71207,12.70723 7.74004,0.21776 14.31614,6.40706 15.60577,15.60267 0.29783,2.0413 0.355,3.9038 0.20257,5.60947 4.0399,-5.5036 6.94611,-10.66092 8.48889,-15.59439 0.84732,-2.70949 0.95162,-3.81427 0.92552,-9.77512 -0.0326,-7.42994 -0.73065,-11.53929 -2.91351,-17.1483 -3.64463,-9.36509 -10.72455,-16.61283 -19.39727,-19.85771 -3.6065,-1.34936 -7.38587,-2.04046 -11.19673,-2.12596 z m -4.91443,23.88949 c -0.13945,0.005 -0.28008,0.0143 -0.42168,0.0289 -0.7552,0.0781 -2.16439,0.39357 -2.80965,0.71469 l 2.03812,19.71921 c 6.88077,-0.71114 10.04438,-3.75171 9.28987,-11.05204 -0.51249,-4.95865 -3.77376,-9.55421 -8.09666,-9.4108 z m 3.098,22.66942 c -0.19105,0.006 -0.38469,0.019 -0.58136,0.0393 l -3.44061,0.35606 2.16782,20.97753 c 0.503,4.86688 2.18672,8.84816 6.71794,8.37985 5.6221,-0.58106 5.96139,-7.14586 5.16351,-14.86576 -0.87375,-8.45411 -4.10463,-15.07289 -10.0273,-14.88695 z m -63.311904,16.27601 c -2.74307,0.53791 -5.52937,0.65577 -5.52937,0.65577 l 1.56993,15.18822 c 0.71982,6.9647 6.52983,7.38198 6.52983,7.38198 l 0.0868,0.83923 -15.34067,1.58543 c 0.13206,0.11575 0.25682,0.23037 0.38964,0.34623 3.05939,2.66889 6.31893,5.36747 9.7715,8.08789 3.45256,2.72041 7.09826,5.46287 10.92956,8.22017 3.31669,2.38692 6.77226,4.78491 10.36268,7.18923 8.073312,5.40628 1.83048,20.61219 8.414992,20.61219 7.66949,0 -0.73538,-14.53145 6.21512,-19.41485 6.7816,-4.76474 2.03306,6.67246 8.15041,6.67246 5.838482,0 -0.83659,-12.36714 7.007842,-16.89614 3.39211,-1.95839 5.72203,-2.50258 7.27553,-1.99315 1.55349,0.50944 2.3305,2.07274 2.61792,4.32894 1.45925,11.45478 -9.7098,40.7753 3.95532,40.7753 13.26058,0 -5.71093,-46.31776 11.71815,-64.44932 1.26685,-1.31792 2.48441,-2.61107 3.66954,-3.88917 -2.85711,1.02374 -6.15895,1.6953 -9.81594,2.07326 l -16.71577,1.72755 c -2.49197,5.21852 -2.82637,15.72703 -13.463272,16.82637 -13.929372,1.43965 -23.224332,-14.64618 -28.191562,-24.14014 -2.12054,-4.10607 -4.38856,-9.63786 -9.6082,-11.72745 z m -20.88557,2.24276 c -5.9673,0.86227 -8.6056,3.28093 -8.4325,6.84247 2.9453,3.42597 6.2931,6.93534 10.0268,10.51202 0.051,-0.71998 0.042,-1.52015 -0.051,-2.41794 z" /><path
       style="fill:none;fill-opacity:1;stroke:#000000;stroke-width:2.64583;stroke-dasharray:none;stroke-opacity:1"
       d="m -100.7645,567.26154 c -3.59042,-2.40432 -7.04632,-4.80232 -10.36301,-7.18924 -3.83131,-2.75729 -7.47685,-5.49979 -10.92942,-8.2202 -3.45257,-2.72041 -6.71217,-5.41872 -9.77156,-8.08761 -16.42748,-14.33062 -27.08304,-27.81305 -30.84961,-39.31395 -2.15666,-6.58518 -1.63951,-17.53063 1.22338,-25.8923 2.04601,-5.97585 4.36045,-9.73723 8.62143,-14.01142 6.48467,-6.5048 14.05554,-9.58285 23.57022,-9.58285 13.64611,0 26.91471,7.59233 34.560812,19.77581 1.18191,1.88328 2.24057,3.42415 2.35257,3.42415 0.11201,0 1.17067,-1.54087 2.35258,-3.42415 10.200662,-16.25398 30.300902,-23.85003 46.787772,-17.6815 8.67273,3.24488 15.75259,10.49294 19.39722,19.85804 2.18287,5.60902 3.6748,9.7182 3.70735,17.14815 0.0261,5.96085 -0.87225,7.06564 -1.71957,9.77513 -3.06828,9.81166 -11.51997,20.50577 -23.58511,33.0572 -17.42909,18.13157 1.54259,64.44922 -11.71801,64.44922 -13.66513,0 -2.49607,-29.32044 -3.95532,-40.77523 -0.28742,-2.25619 -1.06476,-3.81927 -2.61826,-4.32871 -1.5535,-0.50943 -3.88317,0.0348 -7.27528,1.99321 -7.84444,4.52899 -1.16947,16.8959 -7.00796,16.8959 -6.117362,0 -1.36857,-11.4368 -8.150172,-6.67206 -6.95051,4.88341 1.45426,19.41461 -6.21524,19.41461 -6.58451,0 -0.34149,-15.20591 -8.414812,-20.6122 z"
       id="path1886"
       sodipodi:nodetypes="ssssssssssssssssssssssss" /><path
       style="fill:#e57ba3;fill-opacity:1;stroke-width:0.407297"
       d="m 128.75077,364.69896 c -3.59042,-2.40432 -7.04632,-4.80232 -10.36301,-7.18924 -3.83131,-2.75729 -7.47685,-5.49979 -10.92942,-8.2202 -3.45257,-2.72041 -6.71217,-5.41872 -9.771563,-8.08761 -16.427483,-14.33062 -27.083043,-27.81305 -30.849613,-39.31395 -2.15666,-6.58518 -1.63951,-17.53063 1.22338,-25.8923 2.04601,-5.97585 4.36045,-9.73723 8.62143,-14.01142 6.48467,-6.5048 14.05554,-9.58285 23.570226,-9.58285 13.64611,0 26.91471,7.59233 34.56081,19.77581 1.18191,1.88328 2.24057,3.42415 2.35257,3.42415 0.11201,0 1.17067,-1.54087 2.35258,-3.42415 10.20066,-16.25398 30.3009,-23.85003 46.78777,-17.6815 8.67273,3.24488 15.75259,10.49294 19.39722,19.85804 2.18287,5.60902 3.6748,9.7182 3.70735,17.14815 0.0261,5.96085 -0.87225,7.06564 -1.71957,9.77513 -3.06828,9.81166 -11.51997,20.50577 -23.58511,33.0572 -17.42909,18.13157 1.54259,64.44922 -11.71801,64.44922 -13.66513,0 -2.49607,-29.32044 -3.95532,-40.77523 -0.28742,-2.25619 -1.06476,-3.81927 -2.61826,-4.32871 -1.5535,-0.50943 -3.88317,0.0348 -7.27528,1.99321 -7.84444,4.52899 -1.16947,16.8959 -7.00796,16.8959 -6.11736,0 -1.36857,-11.4368 -8.15017,-6.67206 -6.95051,4.88341 1.45426,19.41461 -6.21524,19.41461 -6.58451,0 -0.34149,-15.20591 -8.41481,-20.6122 z"
       id="path2614"
       sodipodi:nodetypes="ssssssssssssssssssssssss" /><path
       style="fill:none;fill-opacity:1;stroke:#000000;stroke-width:2.64583;stroke-dasharray:none;stroke-opacity:1"
       d="m 125.71193,359.0863 c -3.59042,-2.40432 -7.04632,-4.80232 -10.36301,-7.18924 -3.83131,-2.75729 -7.47685,-5.49979 -10.92942,-8.2202 -3.45257,-2.72041 -6.712173,-5.41872 -9.771563,-8.08761 -16.42748,-14.33062 -27.08304,-27.81305 -30.84961,-39.31395 -2.15666,-6.58518 -1.63951,-17.53063 1.22338,-25.8923 2.04601,-5.97585 4.36045,-9.73723 8.62143,-14.01142 6.48467,-6.5048 14.05554,-9.58285 23.57022,-9.58285 13.646113,0 26.914713,7.59233 34.560813,19.77581 1.18191,1.88328 2.24057,3.42415 2.35257,3.42415 0.11201,0 1.17067,-1.54087 2.35258,-3.42415 10.20066,-16.25398 30.3009,-23.85003 46.78777,-17.6815 8.67273,3.24488 15.75259,10.49294 19.39722,19.85804 2.18287,5.60902 3.6748,9.7182 3.70735,17.14815 0.0261,5.96085 -0.87225,7.06564 -1.71957,9.77513 -3.06828,9.81166 -11.51997,20.50577 -23.58511,33.0572 -17.42909,18.13157 1.54259,64.44922 -11.71801,64.44922 -13.66513,0 -2.49607,-29.32044 -3.95532,-40.77523 -0.28742,-2.25619 -1.06476,-3.81927 -2.61826,-4.32871 -1.5535,-0.50943 -3.88317,0.0348 -7.27528,1.99321 -7.84444,4.52899 -1.16947,16.8959 -7.00796,16.8959 -6.11736,0 -1.36857,-11.4368 -8.15017,-6.67206 -6.95051,4.88341 1.45426,19.41461 -6.21524,19.41461 -6.58451,0 -0.34149,-15.20591 -8.41481,-20.6122 z"
       id="path2616"
       sodipodi:nodetypes="ssssssssssssssssssssssss" /><g
       id="g2622"
       transform="matrix(1.1224486,0.01364787,-0.01364787,1.1224486,122.31762,385.48834)"><path
         d="m -0.10519302,-73.28242 c 0.6096,-0.1016 2.38760002,-0.3556 4.36880002,-1.0668 4.2164,-1.4732 6.5532,-4.9784 6.5532,-9.398 0,-4.5212 -2.1336,-7.5184 -6.1976,-8.9408 -2.032,-0.7112 -4.72440002,-1.016 -7.9756,-1.016 h -16.6624 v 0.7112 c 0,0 3.1496,0.1524 3.1496,4.826 v 12.2936 h 9.2964 v -16.3068 c 5.2324,-2.0828 8.9916,2.5908 8.9916,8.7884 0,4.572 -1.87960002,7.9248 -5.6388,8.6868 -0.8128,0.1524 -1.9304,0.254 -3.3528,0.254 h -9.2964 c -3.81,0 -11.8872,0.1016 -11.8872,6.096 0,6.0452 8.3312,5.4864 9.4996,3.4544 -2.0828,-0.3048 -3.0988,-2.0828 -3.0988,-3.9624 0,-2.286 1.7272,-3.6576 5.4864,-3.81 v 9.0424 c 0,4.6736 -3.1496,4.826 -3.1496,4.826 v 0.6604 h 15.9004 v -0.508 c 0,0 -3.4544,-0.6096 -3.4544,-4.826 v -9.1948 c 0,0 1.6764,0.1016 3.3528,-0.0508 2.9972,1.5748 4.01319998,5.0292 5.02919998,7.62 2.38760002,5.9944 6.95960002,16.2052 15.39240002,16.2052 8.4328,0 13.71441,-10.779654 13.71441,-10.779654 -17.5768,5.588 -17.27041,-11.470746 -30.02121002,-13.604346 z"
         id="path2618"
         style="font-size:192px;line-height:0;font-family:Rockabye;-inkscape-font-specification:Rockabye;letter-spacing:20px;word-spacing:0px;white-space:pre;stroke-width:0.264583"
         sodipodi:nodetypes="ccsssccscccscssscscsccccscccscc" /><path
         d="m 35.427157,-58.14402 c 8.5852,0 14.2748,-2.9464 13.9192,-11.43 -0.2032,-5.588 -3.7592,-9.7028 -8.382,-10.3124 3.9624,0 6.7564,-2.9972 6.604,-7.0104 -0.254,-5.588 -4.7752,-6.7056 -9.398,-6.7056 -6.1468,0 -12.7,-0.1016 -18.8468,-0.1016 v 0.7112 c 0,0 3.6576,-0.3048 3.6576,3.7592 v 26.7208 c 0,3.6068 -3.6576,3.7592 -3.6576,3.7592 v 0.6096 z m -3.1496,-33.9344 c 0.4064,-0.1524 1.27,-0.254 1.7272,-0.254 2.7432,0 4.5212,3.048 4.5212,6.1468 0,4.4196 -2.0828,6.0452 -6.2484,6.0452 z m 0,13.5128 h 2.0828 c 3.81,0 5.4356,4.2672 5.4356,9.5504 0,4.6736 -0.6096,8.5852 -4.0132,8.5852 -2.7432,0 -3.5052,-2.4892 -3.5052,-5.4356 z"
         id="path2620"
         style="font-size:192px;line-height:0;font-family:Rockabye;-inkscape-font-specification:Rockabye;letter-spacing:20px;word-spacing:0px;white-space:pre;stroke-width:0.264583" /></g><path
       style="fill:#eb9bb9;fill-opacity:1;stroke-width:0.407297"
       d="m 112.28696,539.0656 c -3.59042,-2.40432 -7.04632,-4.80232 -10.363,-7.18924 -3.831319,-2.75729 -7.476859,-5.49979 -10.929429,-8.2202 -3.45257,-2.72041 -6.71217,-5.41872 -9.77156,-8.08761 -16.42748,-14.33062 -27.08304,-27.81305 -30.84961,-39.31395 -2.15666,-6.58518 -1.63951,-17.53063 1.22338,-25.8923 2.04601,-5.97585 4.36045,-9.73723 8.62143,-14.01142 6.48467,-6.5048 14.05554,-9.58285 23.57022,-9.58285 13.64611,0 26.914709,7.59233 34.560809,19.77581 1.18191,1.88328 2.24057,3.42415 2.35257,3.42415 0.11201,0 1.17067,-1.54087 2.35258,-3.42415 10.20066,-16.25398 30.3009,-23.85003 46.78777,-17.6815 8.67273,3.24488 15.75259,10.49294 19.39722,19.85804 2.18287,5.60902 3.6748,9.7182 3.70735,17.14815 0.0261,5.96085 -0.87225,7.06564 -1.71957,9.77513 -3.06828,9.81166 -11.51997,20.50577 -23.58511,33.0572 -17.42909,18.13157 1.54259,64.44922 -11.71801,64.44922 -13.66513,0 -2.49607,-29.32044 -3.95532,-40.77523 -0.28742,-2.25619 -1.06476,-3.81927 -2.61826,-4.32871 -1.5535,-0.50943 -3.88317,0.0348 -7.27528,1.99321 -7.84444,4.52899 -1.16947,16.8959 -7.00796,16.8959 -6.11736,0 -1.36857,-11.4368 -8.15017,-6.67206 -6.95051,4.88341 1.45426,19.41461 -6.21524,19.41461 -6.58451,0 -0.34149,-15.20591 -8.41481,-20.6122 z"
       id="path4076"
       sodipodi:nodetypes="ssssssssssssssssssssssss"
       inkscape:export-filename="brantley_favicon.png"
       inkscape:export-xdpi="96"
       inkscape:export-ydpi="96" /><path
       style="fill:none;fill-opacity:1;stroke:#000000;stroke-width:2.64583;stroke-dasharray:none;stroke-opacity:1"
       d="m 117.48003,534.94965 c -3.59042,-2.40432 -7.04632,-4.80232 -10.36301,-7.18924 -3.83131,-2.75729 -7.476854,-5.49979 -10.929424,-8.2202 -3.45257,-2.72041 -6.71217,-5.41872 -9.77156,-8.08761 -16.42748,-14.33062 -27.08304,-27.81305 -30.84961,-39.31395 -2.15666,-6.58518 -1.63951,-17.53063 1.22338,-25.8923 2.04601,-5.97585 4.36045,-9.73723 8.62143,-14.01142 6.48467,-6.5048 14.05554,-9.58285 23.57022,-9.58285 13.646114,0 26.914714,7.59233 34.560814,19.77581 1.18191,1.88328 2.24057,3.42415 2.35257,3.42415 0.11201,0 1.17067,-1.54087 2.35258,-3.42415 10.20066,-16.25398 30.3009,-23.85003 46.78777,-17.6815 8.67273,3.24488 15.75259,10.49294 19.39722,19.85804 2.18287,5.60902 3.6748,9.7182 3.70735,17.14815 0.0261,5.96085 -0.87225,7.06564 -1.71957,9.77513 -3.06828,9.81166 -11.51997,20.50577 -23.58511,33.0572 -17.42909,18.13157 1.54259,64.44922 -11.71801,64.44922 -13.66513,0 -2.49607,-29.32044 -3.95532,-40.77523 -0.28742,-2.25619 -1.06476,-3.81927 -2.61826,-4.32871 -1.5535,-0.50943 -3.88317,0.0348 -7.27528,1.99321 -7.84444,4.52899 -1.16947,16.8959 -7.00796,16.8959 -6.11736,0 -1.36857,-11.4368 -8.15017,-6.67206 -6.95051,4.88341 1.45426,19.41461 -6.21524,19.41461 -6.58451,0 -0.34149,-15.20591 -8.41481,-20.6122 z"
       id="path4078"
       sodipodi:nodetypes="ssssssssssssssssssssssss" /></g></svg>
